<svg width="170" height="185" fill="none" xmlns="http://www.w3.org/2000/svg"><circle cx="163.063" cy="92.04" r="3.124" stroke="#000"/><circle cx="7.972" cy="92.04" r="3.124" stroke="#000"/><path d="M155.663 137.804l-.219-.45-.007.004.226.446zm-6.889-2.495l.42-.271-.001-.002-.419.273zm-.954-3.445l-.5-.01v.006l.5.004zm2.979-8.2l.452.213.175-.372-.331-.243-.296.402zm-4.176-3.076l-.453-.213-.175.372.331.244.297-.403zm1.02-2.172l.298-.402-.491-.363-.259.552.452.213zm13.776 10.186l.452.213.175-.371-.33-.244-.297.402zm-11.322 4.173l-.485.121.485-.121zm4.898 2.726l-.23-.444-.006.003.236.441zm3.687-5.984l.452.213.175-.371-.33-.244-.297.402zm-6.177-4.574l.297-.402-.49-.363-.26.553.453.212zm5.807 9.094c-.801 1.706-1.768 2.782-2.868 3.317l.438.899c1.376-.67 2.477-1.963 3.335-3.791l-.905-.425zm-2.875 3.321c-1.073.544-2.234.54-3.536-.071l-.425.905c1.537.722 3.025.761 4.413.058l-.452-.892zm-3.536-.071c-1.219-.573-2.112-1.326-2.707-2.249l-.84.542c.713 1.106 1.764 1.974 3.122 2.612l.425-.905zm-2.708-2.251c-.588-.903-.883-1.953-.873-3.168l-1-.008c-.012 1.391.329 2.638 1.035 3.722l.838-.546zm-.873-3.162c.024-1.211.358-2.521 1.022-3.935l-.905-.426c-.71 1.511-1.089 2.96-1.117 4.341l1 .02zm1.022-3.935l1.909-4.062-.905-.425-1.909 4.061.905.426zm1.753-4.677l-4.176-3.077-.593.806 4.176 3.076.593-.805zm-4.02-2.461l1.021-2.172-.905-.426-1.021 2.172.905.426zm.271-1.983l13.776 10.186.594-.804-13.775-10.186-.595.804zm13.62 9.572l-2.654 5.647.905.425 2.654-5.647-.905-.425zm-10.659.055c-.764 1.625-1.026 3.119-.695 4.451l.97-.242c-.256-1.03-.077-2.281.63-3.784l-.905-.425zm-.695 4.451c.337 1.356 1.265 2.363 2.689 3.032l.426-.905c-1.212-.569-1.895-1.363-2.145-2.369l-.97.242zm2.689 3.032c1.016.477 2.011.506 2.93.014l-.472-.882c-.594.318-1.252.33-2.032-.037l-.426.905zm2.923.017c.905-.468 1.626-1.354 2.196-2.566l-.905-.426c-.519 1.105-1.114 1.775-1.75 2.104l.459.888zm2.196-2.566l1.714-3.649-.905-.426-1.714 3.649.905.426zm1.559-4.264l-6.177-4.574-.595.804 6.177 4.574.595-.804zm-6.927-4.384l-1.745 3.714.905.425 1.745-3.714-.905-.425zM143.112 156.012l-.381.324.394.465.379-.478-.392-.311zm-11.089-13.06l-.392-.31-.254.322.265.312.381-.324zm1.489-1.882l.381-.323-.394-.465-.379.478.392.31zm4.911 5.784l-.381.324.395.465.378-.479-.392-.31zm5.987-7.566l.392.311.255-.322-.266-.312-.381.323zm-4.911-5.783l-.392-.311-.254.322.265.312.381-.323zm1.49-1.882l.381-.324-.395-.465-.378.478.392.311zm11.089 13.06l.392.31.254-.321-.265-.313-.381.324zm-1.49 1.882l-.381.323.395.465.378-.478-.392-.31zm-4.752-5.597l.381-.324-.395-.465-.378.478.392.311zm-5.987 7.565l-.392-.31-.255.321.266.313.381-.324zm4.752 5.597l.392.311.255-.322-.266-.312-.381.323zm-1.108 1.559l-11.089-13.06-.762.647 11.089 13.06.762-.647zm-11.078-12.426l1.489-1.882-.784-.621-1.489 1.882.784.621zm.716-1.869l4.911 5.784.762-.648-4.911-5.783-.762.647zm5.684 5.77l5.987-7.565-.784-.621-5.987 7.566.784.62zm5.976-8.199l-4.91-5.784-.763.647 4.911 5.784.762-.647zm-4.9-5.15l1.49-1.882-.784-.621-1.49 1.882.784.621zm.717-1.869l11.088 13.06.763-.647-11.089-13.06-.762.647zm11.078 12.427l-1.49 1.882.784.62 1.49-1.882-.784-.62zm-.717 1.868l-4.752-5.597-.762.647 4.752 5.597.762-.647zm-5.525-5.584l-5.987 7.566.784.621 5.987-7.566-.784-.621zm-5.976 8.2l4.752 5.597.762-.647-4.752-5.597-.762.647zm4.741 4.963l-1.489 1.882.784.621 1.489-1.882-.784-.621zM128.009 146.871l.096.491-.096-.491zm3.657.302l.189-.464-.003-.001-.186.465zm5.127 7.199l-.494.076.494-.076zm-.604 5.072l.462.191.001-.002-.463-.189zm-7.324 6.224l-.096-.491h-.003l.099.491zm-3.691-.307l.188-.463-.003-.001-.185.464zm-5.112-7.18l.494-.076-.494.076zm.623-5.087l-.462-.19.462.19zm2.041.76l.467.179-.467-.179zm-.381 3.869l-.492.086v.003l.492-.089zm5.098 5.707l.051-.497-.008-.001-.043.498zm6.686-4.731l.467.179-.467-.179zm.385-3.903l.493-.083-.001-.005-.492.088zm-5.098-5.707l.048-.498h-.004l-.044.498zm-5.008.068c1.258-.97 2.491-1.559 3.697-1.795l-.192-.982c-1.392.272-2.764.943-4.116 1.986l.611.791zm3.697-1.795c1.213-.238 2.333-.142 3.376.275l.371-.929c-1.236-.494-2.553-.599-3.939-.328l.192.982zm3.373.274c1.056.43 1.992 1.162 2.805 2.216l.792-.61c-.906-1.176-1.979-2.027-3.22-2.533l-.377.927zm2.805 2.216c1.095 1.42 1.763 2.951 2.016 4.596l.988-.152c-.28-1.823-1.021-3.51-2.212-5.054l-.792.61zm2.016 4.596a8.937 8.937 0 01-.574 4.808l.927.377a9.928 9.928 0 00.635-5.337l-.988.152zm-.573 4.806c-.644 1.567-1.724 2.943-3.26 4.127l.61.792c1.657-1.278 2.856-2.79 3.575-4.538l-.925-.381zm-3.26 4.127c-1.259.97-2.491 1.56-3.697 1.796l.192.981c1.391-.272 2.763-.943 4.115-1.985l-.61-.792zm-3.7 1.796c-1.223.246-2.353.149-3.404-.279l-.377.927c1.247.507 2.578.614 3.978.333l-.197-.981zm-3.407-.28c-1.044-.417-1.974-1.141-2.787-2.196l-.792.61c.906 1.176 1.975 2.022 3.208 2.515l.371-.929zm-2.787-2.196c-1.095-1.42-1.764-2.951-2.016-4.596l-.989.152c.28 1.823 1.022 3.51 2.213 5.054l.792-.61zm-2.016-4.596c-.252-1.642-.057-3.246.591-4.821l-.924-.38c-.716 1.739-.936 3.527-.656 5.353l.989-.152zm.591-4.821c.645-1.566 1.725-2.942 3.261-4.127l-.611-.791c-1.657 1.277-2.855 2.789-3.574 4.538l.924.38zm3.784-3.095c-1.256.968-2.153 2.13-2.672 3.486l.934.358c.446-1.166 1.222-2.183 2.348-3.052l-.61-.792zm-2.672 3.486a7.686 7.686 0 00-.406 4.134l.985-.171a6.693 6.693 0 01.355-3.605l-.934-.358zm-.406 4.137c.254 1.414.843 2.717 1.758 3.905l.792-.61c-.823-1.068-1.342-2.224-1.566-3.472l-.984.177zm1.758 3.905c1.019 1.322 2.285 2.081 3.788 2.211l.087-.996c-1.182-.102-2.206-.689-3.083-1.825l-.792.61zm3.78 2.211c1.507.156 3.024-.4 4.533-1.564l-.611-.792c-1.379 1.064-2.646 1.483-3.819 1.361l-.103.995zm4.533-1.564c1.255-.968 2.153-2.13 2.672-3.486l-.934-.358c-.446 1.166-1.222 2.183-2.349 3.052l.611.792zm2.672-3.486a7.83 7.83 0 00.411-4.165l-.986.166a6.83 6.83 0 01-.359 3.641l.934.358zm.41-4.17c-.253-1.414-.837-2.711-1.744-3.887l-.792.611c.813 1.054 1.328 2.203 1.552 3.452l.984-.176zm-1.744-3.887c-1.019-1.321-2.288-2.085-3.798-2.23l-.095.996c1.194.114 2.225.708 3.101 1.845l.792-.611zm-3.802-2.23c-1.506-.131-3.021.435-4.529 1.598l.61.792c1.381-1.065 2.653-1.496 3.832-1.394l.087-.996zM117.269 169.769l-.486.118.145.592.552-.257-.211-.453zm5.199-2.424l.485-.121-.146-.589-.55.257.211.453zm.512 2.065l.212.453.373-.174-.099-.4-.486.121zm-12.594 5.872l-.486.115.141.597.556-.259-.211-.453zm-.491-2.075l-.211-.453-.369.172.094.396.486-.115zm5.199-2.424l.211.453.372-.173-.097-.398-.486.118zm-3.542-14.581l-.211-.454-.371.174.097.398.485-.118zm2.154-1.004l.486-.119-.145-.592-.552.257.211.454zm3.774 15.024l5.199-2.424-.422-.906-5.199 2.424.422.906zm4.503-2.757l.512 2.065.971-.241-.513-2.065-.97.241zm.786 1.491l-12.594 5.873.422.906 12.595-5.872-.423-.907zm-11.896 6.211l-.491-2.075-.973.23.491 2.075.973-.23zm-.766-1.507l5.198-2.424-.422-.906-5.199 2.424.423.906zm5.473-2.995l-3.542-14.581-.971.236 3.541 14.581.972-.236zm-3.816-14.01l2.153-1.004-.422-.907-2.154 1.004.423.907zm1.456-1.339l3.563 14.571.972-.237-3.563-14.571-.972.237zM101.516 160.441l-.123.485.123-.485zm3.178 1.834l.368-.338-.002-.003-.366.341zm1.563 8.699l-.48-.142.48.142zm-2.712 4.329l.337.37.001-.002-.338-.368zm-9.28 2.501l.123-.485-.003-.001-.12.486zm-3.207-1.853l.368-.338-.002-.002-.366.34zm-1.558-8.675l.48.142-.48-.142zm2.736-4.335l-.337-.369.337.369zm1.521 1.559l.346.361-.346-.361zm-1.996 3.337l-.482-.133v.002l.482.131zm2.173 7.336l.26-.427-.008-.005-.252.432zM102 173.75l.346.361-.346-.361zm2.015-3.366l.481.136.001-.005-.482-.131zm-2.174-7.336l.256-.43-.004-.002-.252.432zm-4.558-2.077c1.552-.34 2.918-.347 4.11-.045l.246-.97c-1.375-.348-2.902-.327-4.57.038l.214.977zm4.11-.045c1.198.303 2.17.868 2.935 1.69l.732-.682c-.906-.974-2.053-1.631-3.421-1.978l-.246.97zm2.933 1.687c.771.84 1.305 1.901 1.59 3.202l.977-.214c-.317-1.45-.924-2.677-1.831-3.664l-.736.676zm1.59 3.202c.384 1.752.335 3.421-.139 5.017l.959.284c.525-1.768.575-3.609.157-5.515l-.977.214zm-.139 5.017a8.934 8.934 0 01-2.571 4.103l.677.736a9.938 9.938 0 002.853-4.555l-.959-.284zm-2.569 4.102c-1.252 1.141-2.816 1.924-4.71 2.339l.213.977c2.045-.448 3.774-1.304 5.171-2.577l-.674-.739zm-4.71 2.339c-1.553.34-2.919.348-4.11.046l-.246.969c1.375.348 2.902.327 4.57-.038l-.215-.977zm-4.113.045c-1.212-.299-2.192-.87-2.959-1.705l-.736.676c.91.992 2.068 1.657 3.455 2l.24-.971zm-2.961-1.707c-.766-.824-1.298-1.876-1.583-3.177l-.977.214c.318 1.45.923 2.671 1.828 3.644l.732-.681zm-1.583-3.177c-.384-1.751-.335-3.421.139-5.016l-.959-.285c-.525 1.769-.575 3.61-.157 5.515l.977-.214zm.139-5.016c.473-1.593 1.334-2.96 2.593-4.107l-.674-.739c-1.39 1.267-2.352 2.79-2.878 4.561l.959.285zm2.593-4.107c1.252-1.141 2.816-1.925 4.71-2.34l-.214-.977c-2.044.448-3.773 1.304-5.17 2.578l.674.739zm4.743-1.184c-1.549.339-2.857 1.007-3.905 2.012l.692.722c.9-.864 2.037-1.452 3.427-1.757l-.215-.977zm-3.905 2.012a7.697 7.697 0 00-2.132 3.565l.964.266a6.692 6.692 0 011.86-3.109l-.692-.722zm-2.133 3.567c-.374 1.388-.398 2.818-.077 4.283l.977-.214c-.289-1.317-.265-2.584.066-3.808l-.966-.261zm-.077 4.283c.357 1.63 1.177 2.857 2.481 3.616l.504-.864c-1.025-.597-1.701-1.564-2.008-2.966l-.977.214zm2.474 3.612c1.296.785 2.905.929 4.767.521l-.214-.976c-1.702.373-3.027.21-4.035-.4l-.518.855zm4.767.521c1.548-.339 2.856-1.006 3.904-2.011l-.692-.722c-.901.863-2.036 1.452-3.426 1.757l.214.976zm3.904-2.011a7.827 7.827 0 002.15-3.591l-.963-.271a6.822 6.822 0 01-1.879 3.14l.692.722zm2.151-3.596c.375-1.387.401-2.809.083-4.259l-.977.214c.285 1.3.26 2.559-.071 3.784l.965.261zm.083-4.259c-.357-1.63-1.179-2.863-2.483-3.638l-.511.859c1.031.613 1.71 1.591 2.017 2.993l.977-.214zm-2.487-3.64c-1.306-.762-2.917-.897-4.778-.489l.215.977c1.703-.373 3.037-.22 4.06.376l.503-.864z" fill="#000"/><path d="M74.977 170.15l-.013.5.412.01.089-.401-.489-.109zm-2.304-.055l-.488-.11-.134.595.61.015.012-.5zm1.478-6.566l-.308-.394-.14.11-.04.174.488.11zm2.844-1.469l.15.477-.15-.477zm7.574.518l.232-.443-.003-.001-.23.444zm2.724 2.538l.435-.246-.004-.007-.431.253zm-.524 8.822l-.432-.252.432.252zm-3.71 3.56l.237.44-.237-.44zm-9.278.45l.202-.458-.003-.001-.199.459zm-2.617-1.983l-.314-.389-.38.306.298.387.396-.304zm1.763-1.423l.388-.315-.315-.386-.387.312.314.389zm2.004 1.489l.197-.46-.008-.003-.189.463zm6.948-.386l-.241-.438.24.438zm2.827-2.765l.433.251v-.002l-.433-.249zm-.368-7.691l.348-.359-.004-.003-.344.362zm-8.15-.507l-.253-.431-.188.11-.047.213.488.108zm-1.2 4.969l-2.303-.056-.024 1 2.303.055.024-.999zm-1.827.554l1.478-6.567-.976-.219-1.478 6.566.976.22zm1.298-6.282c.764-.597 1.658-1.06 2.687-1.386l-.302-.953c-1.132.358-2.134.874-3 1.551l.615.788zm2.687-1.386a9.642 9.642 0 013.161-.449l.024-1a10.644 10.644 0 00-3.487.496l.302.953zm3.161-.449c1.571.038 2.91.355 4.032.934l.46-.888c-1.282-.662-2.776-1.005-4.468-1.046l-.024 1zm4.03.933c1.11.581 1.945 1.364 2.525 2.349l.862-.507c-.682-1.159-1.662-2.067-2.923-2.728l-.464.886zm2.52 2.341c.565.999.838 2.155.806 3.484l1 .024c.036-1.486-.271-2.825-.935-4l-.87.492zm.806 3.484c-.043 1.793-.487 3.403-1.326 4.84l.864.504c.93-1.593 1.415-3.37 1.462-5.32l-1-.024zm-1.326 4.84c-.837 1.434-2.005 2.556-3.516 3.372l.475.88c1.667-.9 2.973-2.151 3.905-3.748l-.864-.504zm-3.516 3.372c-1.502.811-3.24 1.201-5.229 1.153l-.024 1c2.138.051 4.052-.368 5.728-1.273l-.475-.88zm-5.229 1.153c-1.405-.033-2.605-.278-3.61-.721l-.402.916c1.149.505 2.482.769 3.988.805l.024-1zm-3.612-.722c-1.024-.444-1.825-1.056-2.42-1.829l-.792.609c.709.923 1.653 1.633 2.814 2.138l.398-.918zm-2.502-1.135l1.763-1.422-.628-.779-1.763 1.423.628.778zm1.06-1.496a5.458 5.458 0 002.205 1.636l.377-.926a4.454 4.454 0 01-1.805-1.341l-.776.631zm2.197 1.633c.863.369 1.86.56 2.98.587l.024-1c-1.023-.024-1.89-.198-2.61-.507l-.394.92zm2.98.587c1.643.039 3.116-.287 4.404-.994l-.481-.877c-1.112.611-2.407.907-3.899.871l-.024 1zm4.404-.994a7.73 7.73 0 003.02-2.953l-.866-.501a6.721 6.721 0 01-2.635 2.577l.481.877zm3.02-2.955c.714-1.247 1.085-2.641 1.121-4.173l-1-.023c-.032 1.379-.365 2.609-.988 3.699l.868.497zm1.121-4.173c.04-1.67-.475-3.064-1.575-4.126l-.694.719c.87.841 1.304 1.951 1.27 3.384l1 .023zm-1.578-4.129c-1.106-1.05-2.688-1.562-4.666-1.61l-.024 1c1.83.044 3.136.513 4.002 1.335l.688-.725zm-4.666-1.61c-1.48-.035-2.845.308-4.081 1.034l.506.862c1.069-.627 2.248-.927 3.551-.896l.024-1zm-4.316 1.357l-1.212 5.468.977.217 1.211-5.469-.976-.216zM61.213 163.726l.003.5.648-.003-.168-.627-.483.13zm-1.627-6.061l.124-.485-.828-.21.221.825.483-.13zm2.466.628l.482-.133-.078-.28-.281-.072-.123.485zm1.57 5.699l-.482.133.077.28.282.072.123-.485zm4.791 1.22l-.123.485.398.101.177-.371-.452-.215zm2.244-4.728l.124-.485-.4-.101-.176.371.452.215zm2.35.598l.45.216.264-.55-.592-.151-.123.485zm-7.402 15.451l-.124.485.398.101.177-.37-.451-.216zm-10.17-3.926l.4-.3-.005-.007-.395.307zm3.887-6.416l-.21-.453.21.453zm4.868 7.827l-.124.485.397.101.178-.369-.451-.217zm3.324-6.93l.451.217.264-.551-.591-.15-.124.484zm-12.281 1.727c.383-1.506 1.094-2.626 2.115-3.399l-.604-.797c-1.23.932-2.05 2.262-2.48 3.95l.968.246zm2.115-3.399c1.025-.777 2.304-1.182 3.868-1.19l-.005-1c-1.742.009-3.242.464-4.467 1.393l.604.797zm4.348-1.82l-1.627-6.061-.966.26 1.627 6.06.966-.259zm-2.233-5.446l2.465.627.247-.969-2.465-.628-.247.97zm2.107.275l1.57 5.7.964-.265-1.57-5.7-.964.265zm1.928 6.052l.442.112.247-.969-.442-.112-.246.969zm.442.112l4.35 1.108.246-.969-4.349-1.108-.247.969zm4.925.838l2.244-4.729-.904-.429-2.244 4.729.904.429zm1.669-4.459l2.349.598.246-.969-2.349-.598-.246.969zm2.021-.102l-7.401 15.451.902.432 7.401-15.451-.902-.432zm-6.827 15.183l-6.07-1.546-.247.969 6.07 1.546.247-.969zm-6.07-1.546c-1.843-.469-3.09-1.218-3.823-2.196l-.8.6c.918 1.225 2.405 2.063 4.376 2.565l.247-.969zM55.83 172.3c-.736-.95-.952-2.091-.597-3.485l-.97-.246c-.419 1.645-.176 3.114.777 4.344l.79-.613zm7.784-6.721c-1.74-.443-3.257-.418-4.502.159l.42.907c.964-.446 2.226-.506 3.835-.096l.247-.97zm-4.502.159c-1.268.587-2.081 1.689-2.47 3.214l.97.246c.33-1.297.98-2.117 1.92-2.553l-.42-.907zm-2.47 3.214c-.28 1.099-.124 2.091.534 2.902l.777-.63c-.423-.521-.559-1.172-.341-2.026l-.97-.246zm.534 2.902c.635.783 1.65 1.315 2.96 1.648l.246-.969c-1.202-.306-1.983-.759-2.43-1.309l-.776.63zm2.96 1.648l3.93 1.001.247-.969-3.93-1.001-.247.969zm4.505.733l3.324-6.93-.901-.433-3.325 6.93.902.433zm2.997-7.631l-4.024-1.025-.247.97 4.024 1.024.247-.969z" fill="#000"/><path d="M46.411 155.41l-.486-.116-.092.383.352.179.226-.446zm8.003 4.064l-.226.446.245.124.237-.14-.256-.43zm4.277-2.539l.227-.446-.245-.124-.237.14.255.43zm2.311 1.174l.25.433.801-.46-.824-.419-.227.446zm-17.407 10.002l-.226.446.241.123.234-.135-.249-.434zm-2.118-1.075l-.488-.11-.086.379.348.177.226-.446zm3.819-16.903l.226-.446-.573-.291-.141.627.487.11zm2.118 1.076l.486.116.092-.384-.352-.178-.226.446zm-1.444 6.13l.226-.446-.566-.287-.147.617.487.116zm-1.973 8.285l-.486-.116-.273 1.144 1.013-.598-.254-.43zm8.457-4.992l.254.43.785-.463-.813-.413-.226.446zm-6.27-4.776l8.004 4.064.453-.892-8.003-4.064-.453.892zm8.486 4.048l4.277-2.539-.51-.86-4.278 2.539.51.86zm3.795-2.523l2.311 1.173.453-.891-2.311-1.174-.453.892zm2.288.294l-17.407 10.003.498.867 17.408-10.003-.499-.867zm-16.931 9.991l-2.119-1.076-.453.892 2.119 1.075.453-.891zm-1.857-.52l3.818-16.903-.975-.22-3.819 16.903.976.22zm3.104-16.567l2.119 1.076.452-.892-2.118-1.076-.453.892zm1.859.514l-1.003 4.201.973.232 1.002-4.201-.972-.232zm-1.444 6.13l-1.973 8.285.973.232 1.972-8.285-.973-.232zm-1.233 8.831l8.457-4.992-.508-.861-8.457 4.992.508.861zm8.43-5.868l-6.485-3.293-.453.892 6.484 3.292.453-.891z" fill="#000"/><path d="M24.938 152.761l.49-.101-.002-.008-.488.109zm4.128-6.053l.158.474.002-.001-.16-.473zm3.574-.068l.134-.482-.006-.001-.128.483zm7.203 4.922l-.319.386.317.261.318-.26-.316-.387zm4.017-3.281l.318-.385-.316-.262-.318.26.316.387zm1.85 1.529l.316.388.473-.385-.47-.389-.319.386zm-13.29 10.813l-.318.385.316.261.318-.259-.315-.387zm-1.228-12.004l.003-.5-.003.5zm-3.858 4.067l.488-.112-.002-.007-.486.119zm4.88 5.058l-.318.386.316.261.318-.259-.315-.388zm5.966-4.847l.315.388.474-.385-.47-.389-.32.386zm-10.252 3.366c-1.453-1.2-2.255-2.404-2.5-3.603l-.98.201c.307 1.499 1.286 2.887 2.843 4.173l.637-.771zm-2.502-3.611c-.26-1.174.031-2.298.947-3.406l-.77-.637c-1.082 1.309-1.49 2.741-1.153 4.26l.976-.217zm.947-3.406c.858-1.039 1.81-1.717 2.851-2.064l-.316-.949c-1.25.417-2.35 1.219-3.306 2.376l.771.637zm2.853-2.065c1.021-.345 2.111-.37 3.285-.058l.257-.966c-1.344-.358-2.637-.337-3.862.077l.32.947zm3.28-.059c1.167.324 2.353.972 3.558 1.968l.637-.771c-1.287-1.064-2.596-1.791-3.927-2.161l-.268.964zm3.558 1.968l3.46 2.858.637-.771-3.46-2.858-.637.771zm4.095 2.859l4.017-3.28-.632-.775-4.018 3.281.633.774zm3.383-3.282l1.85 1.528.637-.771-1.85-1.528-.638.771zm1.853.755l-13.29 10.813.631.775 13.29-10.812-.631-.776zm-12.656 10.815l-4.81-3.974-.638.771 4.811 3.974.637-.771zm2.595-10.339c-1.384-1.144-2.767-1.769-4.139-1.779l-.007 1c1.062.008 2.229.492 3.51 1.55l.636-.771zm-4.139-1.779c-1.397-.01-2.603.639-3.605 1.852l.771.637c.852-1.032 1.79-1.497 2.827-1.489l.008-1zm-3.605 1.852c-.714.865-.99 1.822-.741 2.834l.971-.238c-.16-.654-.008-1.295.541-1.959l-.771-.637zm-.743 2.827c.228.993.908 1.911 1.94 2.764l.637-.771c-.94-.777-1.442-1.52-1.602-2.217l-.975.224zm1.94 2.764l3.11 2.568.636-.771-3.109-2.568-.636.771zm3.743 2.57l5.965-4.847-.63-.776-5.966 4.847.631.776zm5.968-5.621l-3.164-2.613-.637.771 3.164 2.613.637-.771zM10.418 136.079l-.218-.449-.549.267.37.485.397-.303zm15.406-7.496l.398-.303-.248-.326-.369.179.22.45zm1.453 1.91l.219.45.548-.267-.369-.486-.398.303zm-6.822 3.32l-.22-.45-.548.267.37.486.398-.303zm5.84 7.679l-.397.303.248.326.368-.179-.218-.45zm6.823-3.32l.398-.302-.248-.327-.369.18.219.449zm1.453 1.91l.219.45.548-.267-.37-.485-.397.302zm-15.406 7.497l-.398.303.248.326.37-.18-.22-.449zm-1.453-1.91l-.218-.45-.549.267.37.485.397-.302zm6.603-3.213l.219.45.548-.267-.37-.486-.397.303zm-5.841-7.679l.398-.303-.248-.326-.369.179.219.45zm-6.603 3.213l-.398.302.249.327.368-.18-.219-.449zm-1.234-1.461l15.406-7.496-.438-.9L10.2 135.63l.437.899zm14.79-7.643l1.452 1.91.796-.606-1.453-1.91-.796.606zm1.631 1.158l-6.822 3.319.437.9 6.823-3.32-.438-.899zm-7.001 4.072l5.84 7.679.797-.606-5.841-7.679-.796.606zm6.457 7.826l6.823-3.32-.438-.899-6.822 3.319.437.9zm6.206-3.467l1.453 1.91.796-.605-1.453-1.91-.796.605zm1.632 1.158l-15.405 7.496.437.899 15.406-7.496-.438-.899zm-14.789 7.643l-1.453-1.91-.796.605 1.453 1.911.796-.606zm-1.632-1.158l6.603-3.212-.438-.9-6.602 3.213.437.899zm6.782-3.965l-5.841-7.679-.796.606 5.84 7.679.797-.606zm-6.458-7.826l-6.602 3.213.437.899 6.603-3.213-.438-.899zm-5.985 3.36l-1.454-1.91-.795.605 1.452 1.91.796-.605zM16.846 122.236l-.122.485.118.029.119-.028-.115-.486zm5.694-1.343l.455-.208-.17-.372-.4.094.115.486zm1 2.182l.115.487.594-.141-.254-.554-.455.208zm-5.835 1.381l-.115-.487-.147.035-.103.109.365.343zm-8.078 8.585l-.454.209.31.675.509-.541-.365-.343zm-.98-2.138l-.364-.342-.23.245.14.306.454-.209zm6.585-7.004l.364.343.582-.619-.823-.208-.123.484zm-11.084-2.814l-.455.209.1.217.232.059.123-.485zm-1.06-2.312l.122-.485-1.01-.255.434.948.454-.208zm13.872 3.949l5.695-1.342-.23-.973-5.694 1.342.23.973zm5.126-1.621l1 2.182.909-.416-1-2.182-.91.416zm1.339 1.487l-5.835 1.381.23.973 5.835-1.38-.23-.974zm-6.085 1.525l-8.077 8.586.729.685 8.077-8.586-.729-.685zm-7.258 8.72l-.98-2.138-.91.417.98 2.138.91-.417zm-1.07-1.587l6.584-7.004-.728-.685-6.585 7.004.729.685zm6.343-7.831l-11.084-2.814-.246.969 11.084 2.814.246-.969zm-10.753-2.538l-1.06-2.313-.908.417 1.06 2.313.908-.417zm-1.636-1.62l13.758 3.464.244-.97-13.758-3.463-.244.969zM14.052 47.196l.219.45.007-.004-.226-.446zm6.889 2.495l-.42.271.001.002.419-.273zm.954 3.445l.5.01v-.006l-.5-.004zm-2.979 8.2l-.452-.213-.175.372.33.243.297-.402zm4.176 3.076l.453.213.174-.372-.33-.244-.297.403zm-1.02 2.172l-.298.402.49.363.26-.552-.453-.213zM8.296 56.398l-.453-.213-.174.371.33.244.297-.402zm11.322-4.173l.485-.12-.485.12zm-4.898-2.726l.23.444.006-.003-.236-.441zm-3.687 5.984l-.453-.213-.174.371.33.244.297-.402zm6.177 4.574l-.297.401.49.364.26-.553-.453-.212zm-5.808-9.094c.802-1.706 1.769-2.782 2.869-3.317l-.438-.9c-1.376.67-2.477 1.964-3.336 3.792l.905.425zm2.876-3.32c1.073-.545 2.234-.541 3.535.07l.426-.905c-1.537-.722-3.026-.762-4.413-.058l.452.892zm3.535.07c1.22.573 2.113 1.326 2.708 2.25l.84-.543c-.714-1.107-1.764-1.974-3.122-2.612l-.426.905zm2.709 2.251c.588.903.883 1.953.873 3.168l1 .008c.012-1.391-.33-2.638-1.035-3.722l-.838.546zm.873 3.162c-.024 1.21-.358 2.52-1.023 3.935l.905.425c.71-1.51 1.09-2.959 1.117-4.34l-1-.02zm-1.023 3.935l-1.908 4.062.905.425 1.909-4.062-.906-.425zm-1.752 4.677l4.176 3.076.593-.805-4.176-3.076-.593.805zm4.02 2.461l-1.021 2.172.905.426 1.02-2.172-.904-.426zm-.271 1.983L8.593 55.996 8 56.8l13.775 10.186.595-.804zM8.749 56.61l2.653-5.647-.905-.425-2.654 5.647.905.425zm10.66-.055c.763-1.625 1.025-3.12.694-4.45l-.97.24c.256 1.031.076 2.282-.63 3.785l.905.425zm.694-4.45c-.337-1.357-1.265-2.364-2.69-3.033l-.425.905c1.211.57 1.894 1.363 2.145 2.369l.97-.242zm-2.69-3.033c-1.015-.477-2.01-.506-2.929-.014l.472.882c.594-.318 1.252-.33 2.032.037l.425-.905zm-2.922-.017c-.906.467-1.626 1.354-2.196 2.566l.905.425c.52-1.104 1.114-1.774 1.75-2.103l-.46-.888zm-2.196 2.566l-1.715 3.65.905.425 1.715-3.65-.905-.425zm-1.56 4.264l6.178 4.573.595-.803-6.178-4.574-.595.804zm6.928 4.384l1.745-3.714-.905-.425-1.745 3.714.905.425zM26.603 28.988l.381-.324-.395-.465-.378.478.392.31zm11.089 13.06l.392.31.254-.322-.265-.312-.381.324zm-1.49 1.882l-.38.323.394.465.379-.478-.392-.31zm-4.91-5.784l.38-.324-.394-.465-.378.479.392.31zm-5.987 7.566l-.392-.31-.255.32.265.313.382-.323zm4.91 5.783l.393.31.254-.32-.265-.313-.382.323zm-1.489 1.882l-.381.324.395.465.378-.478-.392-.31zm-11.089-13.06l-.392-.31-.254.321.265.313.381-.324zm1.49-1.882l.38-.323-.394-.465-.379.478.392.31zm4.752 5.597l-.381.324.394.465.379-.478-.392-.31zm5.987-7.565l.392.31.254-.321-.265-.313-.381.324zm-4.752-5.597l-.393-.31-.254.32.265.313.382-.323zm1.108-1.559l11.089 13.06.762-.647-11.089-13.06-.762.647zM37.3 41.737l-1.49 1.882.785.62 1.489-1.881-.784-.62zm-.716 1.869l-4.911-5.784-.762.647 4.91 5.784.763-.647zm-5.684-5.77L24.913 45.4l.784.62 5.987-7.565-.784-.62zm-5.976 8.2l4.91 5.783.763-.647-4.911-5.784-.762.647zm4.9 5.149l-1.49 1.882.784.62 1.49-1.881-.785-.621zm-.717 1.869l-11.089-13.06-.762.647L28.345 53.7l.762-.647zM18.03 40.627l1.49-1.882-.785-.62-1.489 1.882.784.62zm.716-1.868l4.753 5.597.762-.647-4.752-5.597-.763.647zm5.526 5.584l5.987-7.566-.784-.62-5.987 7.565.784.62zm5.976-8.2l-4.752-5.597-.763.647 4.753 5.597.762-.647zm-4.741-4.963l1.489-1.882-.784-.62-1.49 1.881.785.62zM41.706 38.13l-.096-.492.096.491zm-3.658-.303l-.188.464h.003l.185-.463zm-5.126-7.199l.494-.076-.494.076zm.604-5.073l-.462-.19-.001.002.463.188zm7.324-6.223l.096.491h.003l-.099-.49zm3.691.306l-.189.463.003.002.186-.465zm5.112 7.18l-.494.077.494-.076zm-.623 5.088l.462.19-.462-.19zm-2.041-.76l-.467-.179.467.179zm.38-3.87l.493-.085v-.003l-.493.089zm-5.097-5.706l-.051.497h.008l.043-.497zm-6.686 4.73l-.467-.178.467.179zm-.385 3.904l-.493.083v.005l.493-.088zm5.097 5.707l-.047.498h.004l.043-.498zm5.009-.069c-1.259.97-2.49 1.56-3.697 1.796l.192.982c1.391-.272 2.764-.943 4.115-1.986l-.61-.791zm-3.697 1.796c-1.213.238-2.333.142-3.376-.275l-.371.929c1.235.494 2.553.599 3.939.328l-.192-.982zm-3.373-.274c-1.056-.43-1.992-1.162-2.805-2.216l-.792.61c.906 1.176 1.979 2.027 3.22 2.532l.377-.926zm-2.805-2.216c-1.095-1.42-1.764-2.95-2.016-4.596l-.989.152c.28 1.823 1.022 3.51 2.213 5.054l.792-.61zm-2.016-4.596a8.936 8.936 0 01.573-4.808l-.926-.377a9.937 9.937 0 00-.636 5.337l.989-.152zm.572-4.806c.645-1.567 1.725-2.943 3.261-4.127l-.61-.792c-1.658 1.278-2.856 2.79-3.575 4.538l.924.38zm3.261-4.127c1.258-.97 2.49-1.56 3.697-1.796l-.192-.981c-1.392.272-2.764.943-4.115 1.985l.61.792zm3.7-1.796c1.223-.247 2.353-.15 3.403.279l.378-.927c-1.247-.508-2.578-.614-3.978-.333l.197.98zm3.406.28c1.045.417 1.975 1.141 2.788 2.196l.792-.61c-.906-1.176-1.975-2.022-3.209-2.515l-.37.929zm2.788 2.196c1.095 1.42 1.763 2.95 2.016 4.596l.988-.152c-.28-1.823-1.02-3.51-2.212-5.054l-.792.61zm2.016 4.596c.252 1.642.056 3.246-.592 4.82l.925.381c.716-1.74.936-3.527.655-5.353l-.988.152zm-.592 4.82c-.644 1.567-1.724 2.943-3.26 4.128l.61.791c1.657-1.277 2.856-2.79 3.575-4.538l-.925-.38zm-3.783 3.096c1.255-.968 2.153-2.13 2.672-3.486l-.934-.358c-.446 1.166-1.222 2.183-2.349 3.052l.611.792zm2.672-3.486a7.697 7.697 0 00.406-4.134l-.985.171a6.696 6.696 0 01-.355 3.605l.934.358zm.406-4.137c-.254-1.414-.843-2.717-1.759-3.905l-.792.61c.824 1.068 1.343 2.224 1.566 3.472l.985-.177zm-1.759-3.905c-1.019-1.322-2.284-2.081-3.788-2.211l-.086.996c1.181.102 2.206.689 3.082 1.825l.792-.61zm-3.78-2.21c-1.506-.157-3.023.4-4.532 1.563l.61.792c1.38-1.064 2.647-1.483 3.82-1.361l.103-.995zm-4.532 1.563c-1.256.968-2.153 2.13-2.672 3.486l.934.358c.446-1.166 1.222-2.183 2.348-3.052l-.61-.792zm-2.672 3.486a7.827 7.827 0 00-.411 4.165l.986-.166a6.827 6.827 0 01.359-3.641l-.934-.358zm-.41 4.17c.253 1.414.837 2.71 1.743 3.887l.792-.61c-.812-1.055-1.327-2.204-1.55-3.453l-.985.176zm1.743 3.887c1.02 1.321 2.289 2.085 3.799 2.23l.095-.996c-1.194-.114-2.225-.708-3.102-1.845l-.791.61zm3.803 2.23c1.506.13 3.02-.435 4.53-1.598l-.611-.792c-1.381 1.065-2.653 1.496-3.832 1.394l-.087.996zM52.446 15.231l.485-.118-.145-.592-.552.257.212.453zm-5.2 2.424l-.484.12.146.59.55-.257-.211-.453zm-.512-2.065l-.211-.453-.373.174.1.4.484-.12zM59.33 9.718l.486-.115-.141-.597-.557.259.212.453zm.49 2.075l.212.453.369-.172-.094-.396-.487.115zm-5.198 2.424l-.212-.453-.37.173.096.398.486-.118zm3.541 14.581l.212.454.37-.174-.096-.398-.486.118zm-2.153 1.004l-.486.12.145.591.552-.257-.211-.454zm-3.775-15.024l-5.198 2.424.422.906 5.199-2.424-.423-.906zm-4.502 2.757l-.512-2.065-.97.24.512 2.066.97-.241zm-.786-1.491L59.54 10.17l-.423-.906-12.594 5.872.423.907zm11.896-6.21l.49 2.074.974-.23-.49-2.075-.974.23zm.766 1.506l-5.198 2.424.422.906 5.199-2.424-.423-.906zm-5.473 2.995l3.541 14.581.972-.236-3.541-14.58-.972.235zm3.816 14.01l-2.153 1.004.422.907 2.154-1.004-.423-.907zm-1.456 1.339L52.93 15.112l-.971.238 3.563 14.571.972-.237zM68.199 24.56l.123-.486-.123.485zm-3.178-1.835l-.369.338.003.003.366-.341zm-1.563-8.7l.48.143-.48-.142zm2.712-4.328l-.337-.37-.001.002.338.368zm9.28-2.5l-.123.484h.003l.12-.485zm3.207 1.852l-.368.338.002.002.366-.34zm1.557 8.675l-.479-.142.48.142zm-2.735 4.334l.337.37-.337-.37zM75.958 20.5l-.346-.36.346.36zm1.996-3.337l.482.133v-.002l-.482-.13zM75.78 9.826l-.26.428.008.004.252-.432zm-8.066 1.424l-.347-.36.347.36zM65.7 14.616l-.481-.136-.001.005.482.13zm2.173 7.336l-.255.43.004.002.251-.432zm4.558 2.077c-1.552.34-2.918.347-4.11.045l-.245.97c1.375.348 2.902.327 4.57-.038l-.215-.977zm-4.11.045c-1.197-.303-2.17-.868-2.934-1.69l-.732.682c.906.974 2.052 1.631 3.421 1.978l.246-.97zm-2.932-1.687c-.772-.84-1.306-1.902-1.59-3.202l-.977.214c.317 1.45.924 2.677 1.83 3.664l.737-.676zm-1.59-3.202c-.385-1.752-.335-3.421.138-5.017l-.958-.284c-.525 1.768-.575 3.61-.157 5.515l.976-.214zm.138-5.017a8.936 8.936 0 012.572-4.103l-.677-.736a9.936 9.936 0 00-2.853 4.554l.958.285zm2.57-4.102c1.252-1.14 2.816-1.924 4.71-2.34l-.214-.976c-2.044.448-3.773 1.304-5.17 2.577l.674.74zm4.71-2.34c1.553-.34 2.918-.347 4.11-.045l.246-.97c-1.375-.347-2.902-.327-4.57.039l.214.977zm4.113-.044c1.211.3 2.191.87 2.959 1.705l.736-.677c-.91-.991-2.069-1.656-3.455-2l-.24.972zm2.96 1.707c.767.824 1.299 1.876 1.584 3.177l.977-.214c-.318-1.45-.923-2.671-1.828-3.644l-.732.681zm1.584 3.177c.384 1.751.335 3.42-.139 5.016l.959.285c.525-1.769.575-3.61.157-5.515l-.977.214zm-.139 5.016c-.473 1.593-1.335 2.96-2.593 4.107l.674.739c1.39-1.267 2.352-2.79 2.878-4.561l-.959-.285zm-2.593 4.107c-1.252 1.141-2.816 1.924-4.71 2.34l.214.977c2.044-.448 3.773-1.304 5.17-2.578l-.674-.739zm-4.743 1.184c1.549-.34 2.856-1.007 3.905-2.012l-.692-.722c-.901.864-2.037 1.452-3.427 1.757l.214.977zm3.905-2.012a7.697 7.697 0 002.132-3.565l-.964-.266a6.697 6.697 0 01-1.86 3.11l.692.72zm2.132-3.567c.375-1.388.399-2.818.078-4.283l-.977.214c.289 1.317.265 2.584-.066 3.808l.965.26zm.078-4.283c-.357-1.63-1.178-2.857-2.481-3.617l-.504.864c1.025.598 1.7 1.565 2.008 2.967l.977-.214zM76.04 9.4c-1.296-.785-2.905-.93-4.767-.522l.214.977c1.702-.373 3.026-.21 4.035.4l.518-.855zm-4.767-.522c-1.548.34-2.856 1.007-3.904 2.012l.692.722c.9-.863 2.036-1.452 3.426-1.757l-.214-.977zM67.37 10.89a7.827 7.827 0 00-2.15 3.591l.963.27a6.827 6.827 0 011.879-3.139l-.693-.722zm-2.151 3.596c-.375 1.387-.4 2.809-.083 4.26l.977-.215c-.285-1.3-.26-2.56.071-3.784l-.965-.26zm-.083 4.26c.357 1.63 1.179 2.862 2.483 3.637l.51-.86c-1.03-.612-1.709-1.59-2.016-2.992l-.977.214zm2.487 3.64c1.306.76 2.917.895 4.777.488l-.214-.977c-1.703.373-3.037.22-4.06-.376l-.503.864z" fill="#000"/><path d="M94.738 14.85l.012-.5-.41-.01-.09.402.488.108zm2.304.055l.487.11.134-.595-.61-.015-.011.5zm-1.478 6.566l.308.394.14-.11.04-.174-.488-.11zM92.72 22.94l-.151-.476.15.476zm-7.574-.517l-.232.443.002.001.23-.444zm-2.724-2.538l-.435.246.004.007.431-.253zm.524-8.822l.432.252-.432-.252zm3.71-3.56l-.237-.44.237.44zm9.278-.45l-.202.458h.003l.199-.458zm2.617 1.983l.314.39.38-.307-.298-.387-.396.304zm-1.763 1.422l-.388.316.314.386.388-.312-.314-.39zM94.783 8.97l-.196.46.008.003.188-.463zm-6.947.386l.24.438-.24-.438zM85.01 12.12l-.433-.25-.001.001.434.249zm.368 7.69l-.348.36.004.003.344-.362zm8.15.508l.253.431.188-.11.047-.213-.488-.108zm1.2-4.969l2.303.056.024-1-2.304-.055-.024 1zm1.827-.554l-1.478 6.566.976.22 1.477-6.566-.975-.22zm-1.298 6.282c-.764.597-1.658 1.06-2.687 1.386l.302.953c1.132-.358 2.134-.874 3-1.55l-.615-.789zm-2.687 1.386a9.63 9.63 0 01-3.161.45l-.024.999c1.19.028 2.353-.137 3.487-.496l-.302-.953zm-3.161.45c-1.572-.038-2.91-.356-4.032-.935l-.46.888c1.282.662 2.776 1.005 4.468 1.046l.024-1zm-4.03-.934c-1.11-.58-1.945-1.364-2.525-2.349l-.862.507c.682 1.159 1.662 2.067 2.923 2.728l.464-.886zm-2.52-2.341c-.565-.999-.838-2.155-.806-3.484l-1-.024c-.036 1.486.27 2.825.935 4l.87-.492zm-.806-3.484c.042-1.793.486-3.403 1.326-4.84l-.864-.504c-.93 1.593-1.415 3.37-1.462 5.32l1 .024zm1.326-4.84c.837-1.434 2.005-2.556 3.516-3.372l-.475-.88c-1.668.9-2.973 2.15-3.905 3.748l.864.504zm3.516-3.372c1.502-.812 3.24-1.201 5.229-1.153l.024-1c-2.138-.051-4.052.368-5.728 1.273l.475.88zm5.229-1.153c1.405.033 2.604.278 3.61.72l.402-.915c-1.15-.505-2.482-.769-3.988-.805l-.024 1zm3.612.722c1.024.444 1.825 1.056 2.42 1.83l.792-.61c-.709-.923-1.653-1.633-2.814-2.138l-.398.918zm2.502 1.135l-1.763 1.422.628.779 1.763-1.423-.628-.778zm-1.06 1.496a5.459 5.459 0 00-2.205-1.636l-.377.926a4.46 4.46 0 011.805 1.34l.776-.63zM94.98 8.509c-.863-.37-1.86-.56-2.98-.587l-.024 1c1.023.024 1.89.198 2.61.507l.394-.92zM92 7.922c-1.643-.04-3.117.287-4.405.994l.482.877c1.112-.611 2.406-.907 3.899-.871l.024-1zm-4.405.994a7.725 7.725 0 00-3.019 2.953l.866.5a6.725 6.725 0 012.635-2.576l-.482-.877zm-3.02 2.955c-.713 1.247-1.084 2.64-1.12 4.173l1 .023c.032-1.38.364-2.609.988-3.7l-.868-.496zm-1.12 4.173c-.04 1.67.475 3.064 1.574 4.126l.695-.719c-.87-.841-1.304-1.951-1.27-3.384l-1-.023zm1.578 4.13c1.106 1.05 2.688 1.561 4.666 1.609l.024-1c-1.83-.044-3.136-.513-4.002-1.335l-.689.725zm4.666 1.609c1.48.035 2.845-.308 4.081-1.034l-.506-.862c-1.069.627-2.249.927-3.551.896l-.024 1zm4.316-1.357l1.212-5.468-.977-.216-1.211 5.468.976.216zM108.502 21.274l-.003-.5-.648.003.168.627.483-.13zm1.626 6.061l-.123.485.828.21-.222-.825-.483.13zm-2.465-.628l-.482.133.077.28.282.072.123-.485zm-1.57-5.7l.482-.132-.077-.28-.282-.072-.123.485zm-4.791-1.22l.123-.484-.399-.101-.176.371.452.215zm-2.244 4.73l-.124.484.399.101.176-.371-.451-.215zm-2.35-.599l-.45-.216-.264.55.591.15.124-.484zm7.402-15.451l.123-.485-.397-.101-.177.37.451.216zm10.169 3.926l-.4.3.005.007.395-.307zm-3.887 6.415l.211.454-.211-.454zm-4.867-7.826l.123-.485-.397-.101-.177.37.451.216zm-3.325 6.93l-.45-.217-.264.55.591.151.123-.485zm12.282-1.727c-.383 1.506-1.095 2.626-2.115 3.399l.604.797c1.23-.932 2.051-2.262 2.48-3.95l-.969-.247zm-2.115 3.399c-1.025.777-2.304 1.182-3.868 1.19l.005 1c1.742-.009 3.242-.464 4.467-1.393l-.604-.797zm-4.348 1.82l1.627 6.06.965-.259-1.627-6.06-.965.259zm2.233 5.446l-2.466-.627-.246.969 2.465.628.247-.97zm-2.107-.276l-1.57-5.7-.964.266 1.57 5.7.964-.265zm-1.929-6.05l-.442-.113-.246.969.442.112.246-.969zm-.442-.113l-4.349-1.108-.247.97 4.35 1.107.246-.97zm-4.924-.838l-2.244 4.729.903.429 2.244-4.729-.903-.429zm-1.669 4.459l-2.349-.598-.247.969 2.35.598.246-.97zm-2.021.102l7.401-15.451-.902-.432-7.401 15.451.902.432zm6.827-15.183l6.07 1.546.247-.97-6.071-1.545-.246.97zm6.07 1.546c1.843.469 3.089 1.218 3.822 2.196l.801-.6c-.919-1.225-2.405-2.063-4.376-2.565l-.247.969zm3.827 2.203c.737.95.953 2.091.598 3.485l.969.246c.419-1.646.177-3.114-.776-4.344l-.791.613zm-7.783 6.72c1.74.443 3.257.419 4.502-.158l-.421-.907c-.964.446-2.225.506-3.835.096l-.246.97zm4.502-.158c1.268-.587 2.081-1.689 2.469-3.214l-.969-.246c-.33 1.297-.98 2.117-1.921 2.553l.421.907zm2.469-3.214c.28-1.1.125-2.091-.534-2.902l-.776.63c.423.52.559 1.171.341 2.026l.969.246zm-.534-2.902c-.634-.783-1.649-1.315-2.959-1.648l-.247.969c1.202.306 1.984.76 2.43 1.309l.776-.63zm-2.959-1.648l-3.931-1.001-.246.97 3.93 1 .247-.97zm-4.505-.733l-3.324 6.93.901.433 3.325-6.93-.902-.433zm-2.997 7.631l4.024 1.024.246-.969-4.023-1.024-.247.969z" fill="#000"/><path d="M123.304 29.59l.486.116.091-.383-.351-.179-.226.446zm-8.004-4.064l.227-.446-.246-.124-.236.14.255.43zm-4.277 2.539l-.226.446.245.124.237-.14-.256-.43zm-2.311-1.174l-.249-.433-.802.46.825.42.226-.447zm17.407-10.002l.227-.446-.241-.123-.235.135.249.434zm2.119 1.075l.488.11.085-.38-.347-.175-.226.445zm-3.819 16.903l-.226.446.573.29.141-.626-.488-.11zm-2.118-1.076l-.487-.116-.091.384.351.178.227-.446zm1.444-6.13l-.226.446.565.287.147-.617-.486-.116zm1.973-8.285l.486.116.272-1.144-1.013.598.255.43zm-8.457 4.992l-.254-.43-.785.463.813.413.226-.446zm6.269 4.776l-8.003-4.064-.453.892 8.003 4.064.453-.892zm-8.485-4.048l-4.277 2.539.511.86 4.276-2.539-.51-.86zm-3.795 2.523l-2.311-1.174-.453.892 2.311 1.174.453-.892zm-2.289-.294l17.408-10.003-.499-.867-17.407 10.003.498.867zm16.932-9.99l2.119 1.075.452-.892-2.118-1.075-.453.891zm1.857.52l-3.818 16.902.975.22 3.819-16.902-.976-.22zm-3.104 16.566l-2.119-1.075-.453.891 2.119 1.076.453-.892zm-1.859-.514l1.003-4.2-.973-.233-1.003 4.201.973.232zm1.444-6.13l1.973-8.285-.973-.232-1.973 8.285.973.232zm1.232-8.831l-8.456 4.992.508.86 8.457-4.991-.509-.861zm-8.428 5.868l6.484 3.293.452-.892-6.484-3.292-.452.891z" fill="#000"/><path d="M144.777 32.24l-.49.1.002.007.488-.108zm-4.128 6.052l-.159-.474h-.002l.161.474zm-3.574.068l-.134.482.006.001.128-.483zm-7.203-4.922l.319-.386-.317-.261-.318.26.316.387zm-4.017 3.28l-.319.386.317.262.318-.26-.316-.387zm-1.851-1.528l-.315-.387-.473.384.47.389.318-.386zm13.29-10.813l.318-.385-.316-.261-.318.259.316.387zm1.229 12.004l-.004.5.004-.5zm3.857-4.067l-.487.112.002.007.485-.119zm-4.88-5.058l.318-.386-.315-.26-.318.258.315.388zm-5.965 4.847l-.315-.388-.474.385.471.389.318-.386zm10.252-3.366c1.453 1.2 2.255 2.404 2.5 3.603l.98-.201c-.307-1.5-1.287-2.887-2.844-4.173l-.636.77zm2.502 3.61c.26 1.175-.032 2.299-.947 3.407l.771.637c1.081-1.31 1.489-2.741 1.152-4.26l-.976.216zm-.947 3.407c-.858 1.039-1.81 1.717-2.852 2.064l.317.949c1.249-.417 2.35-1.219 3.306-2.376l-.771-.637zm-2.854 2.065c-1.02.345-2.111.37-3.285.058l-.256.966c1.344.358 2.636.337 3.862-.077l-.321-.947zm-3.279.06c-1.167-.325-2.353-.973-3.558-1.968l-.637.77c1.287 1.064 2.596 1.791 3.927 2.16l.268-.963zm-3.558-1.968l-3.46-2.859-.637.771 3.46 2.858.637-.77zm-4.095-2.86l-4.017 3.28.632.775 4.018-3.28-.633-.775zm-3.383 3.282l-1.85-1.528-.637.77 1.85 1.53.637-.772zm-1.853-.755l13.29-10.813-.632-.775-13.289 10.813.631.775zm12.656-10.815l4.811 3.974.636-.771-4.811-3.974-.636.77zm-2.595 10.34c1.384 1.143 2.767 1.768 4.138 1.778l.008-1c-1.062-.008-2.229-.492-3.509-1.55l-.637.771zm4.138 1.778c1.398.01 2.604-.639 3.606-1.852l-.771-.637c-.853 1.032-1.791 1.497-2.827 1.489l-.008 1zm3.606-1.852c.714-.865.989-1.822.741-2.834l-.971.238c.16.654.008 1.295-.541 1.96l.771.636zm.743-2.827c-.229-.993-.908-1.91-1.941-2.764l-.637.771c.941.777 1.443 1.52 1.603 2.217l.975-.224zm-1.941-2.764l-3.109-2.568-.636.771 3.108 2.568.637-.77zm-3.742-2.57l-5.965 4.847.63.776 5.965-4.847-.63-.776zm-5.968 5.62l3.164 2.614.637-.77-3.165-2.614-.636.77zM159.296 48.92l.219.45.548-.267-.369-.485-.398.303zm-15.405 7.497l-.398.303.248.326.368-.18-.218-.449zm-1.453-1.91l-.219-.45-.548.267.369.486.398-.303zm6.822-3.32l.219.45.548-.267-.369-.486-.398.303zm-5.841-7.68l.398-.302-.248-.326-.368.18.218.449zm-6.822 3.32l-.398.303.248.327.369-.18-.219-.45zm-1.453-1.91l-.219-.45-.548.268.369.485.398-.303zm15.405-7.496l.398-.303-.248-.326-.368.18.218.45zm1.453 1.91l.219.45.549-.267-.37-.485-.398.302zm-6.602 3.213l-.219-.45-.548.267.369.486.398-.303zm5.841 7.68l-.398.302.248.326.369-.18-.219-.449zm6.602-3.214l.398-.302-.248-.327-.368.18.218.45zm1.235 1.461l-15.406 7.496.437.9 15.406-7.497-.437-.899zm-14.789 7.643l-1.453-1.91-.796.605 1.453 1.91.796-.605zm-1.633-1.158l6.823-3.32-.438-.899-6.822 3.32.437.9zm7.002-4.072l-5.841-7.679-.796.606 5.841 7.679.796-.606zm-6.457-7.826l-6.823 3.32.438.9 6.822-3.32-.437-.9zm-6.206 3.467l-1.453-1.91-.796.605 1.453 1.91.796-.605zm-1.632-1.158l15.405-7.496-.437-.9-15.406 7.497.438.9zm14.789-7.643l1.452 1.91.796-.605-1.453-1.91-.795.605zm1.632 1.158l-6.603 3.212.438.9 6.602-3.213-.437-.9zm-6.782 3.965l5.841 7.679.796-.606-5.841-7.679-.796.606zm6.458 7.826l6.602-3.213-.437-.9-6.603 3.213.438.9zm5.985-3.36l1.453 1.91.796-.605-1.453-1.91-.796.605zM152.869 62.764l.122-.485-.118-.03-.119.029.115.486zm-5.694 1.343l-.455.208.171.372.398-.093-.114-.487zm-1-2.182l-.115-.487-.594.14.254.555.455-.208zm5.835-1.38l.115.486.146-.035.103-.109-.364-.343zm8.077-8.587l.455-.208-.31-.675-.509.54.364.343zm.98 2.139l.365.342.23-.245-.14-.306-.455.209zm-6.584 7.004l-.365-.343-.581.619.823.208.123-.484zm11.084 2.814l.454-.209-.099-.217-.232-.059-.123.485zm1.06 2.313l-.122.484 1.011.255-.435-.948-.454.209zm-13.873-3.95l-5.694 1.342.229.974 5.695-1.343-.23-.973zm-5.125 1.62l-1-2.181-.909.416 1 2.182.909-.416zm-1.339-1.486l5.835-1.381-.23-.973-5.835 1.38.23.974zm6.084-1.525l8.078-8.586-.729-.685-8.077 8.586.728.685zm7.259-8.72l.98 2.138.909-.417-.98-2.138-.909.417zm1.07 1.587l-6.585 7.004.729.685 6.585-7.004-.729-.685zm-6.343 7.831l11.084 2.814.246-.969-11.084-2.814-.246.97zm10.752 2.538l1.06 2.313.909-.417-1.06-2.313-.909.417zm1.637 1.62l-13.758-3.463-.244.97 13.758 3.462.244-.97z" fill="#000"/></svg>