<svg width="170" height="185" viewBox="0 0 170 185" fill="none" xmlns="http://www.w3.org/2000/svg">
<circle cx="163.063" cy="92.0398" r="3.12361" stroke="black"/>
<circle cx="7.97191" cy="92.0398" r="3.12361" stroke="black"/>
<path d="M155.663 137.804L155.444 137.354L155.437 137.358L155.663 137.804ZM148.774 135.309L149.194 135.038L149.193 135.036L148.774 135.309ZM147.82 131.864L147.32 131.854L147.32 131.86L147.82 131.864ZM150.799 123.664L151.251 123.877L151.426 123.505L151.095 123.262L150.799 123.664ZM146.623 120.588L146.17 120.375L145.995 120.747L146.326 120.991L146.623 120.588ZM147.643 118.416L147.941 118.014L147.45 117.651L147.191 118.203L147.643 118.416ZM161.419 128.602L161.871 128.815L162.046 128.444L161.716 128.2L161.419 128.602ZM150.097 132.775L149.612 132.896L149.612 132.896L150.097 132.775ZM154.995 135.501L154.765 135.057L154.759 135.06L154.995 135.501ZM158.682 129.517L159.134 129.73L159.309 129.359L158.979 129.115L158.682 129.517ZM152.505 124.943L152.802 124.541L152.312 124.178L152.052 124.731L152.505 124.943ZM158.312 134.037C157.511 135.743 156.544 136.819 155.444 137.354L155.882 138.253C157.258 137.583 158.359 136.29 159.217 134.462L158.312 134.037ZM155.437 137.358C154.364 137.902 153.203 137.898 151.901 137.287L151.476 138.192C153.013 138.914 154.501 138.953 155.889 138.25L155.437 137.358ZM151.901 137.287C150.682 136.714 149.789 135.961 149.194 135.038L148.354 135.58C149.067 136.686 150.118 137.554 151.476 138.192L151.901 137.287ZM149.193 135.036C148.605 134.133 148.31 133.083 148.32 131.868L147.32 131.86C147.308 133.251 147.649 134.498 148.355 135.582L149.193 135.036ZM148.32 131.874C148.344 130.663 148.678 129.353 149.342 127.939L148.437 127.513C147.727 129.024 147.348 130.473 147.32 131.854L148.32 131.874ZM149.342 127.939L151.251 123.877L150.346 123.452L148.437 127.513L149.342 127.939ZM151.095 123.262L146.919 120.185L146.326 120.991L150.502 124.067L151.095 123.262ZM147.075 120.801L148.096 118.629L147.191 118.203L146.17 120.375L147.075 120.801ZM147.346 118.818L161.122 129.004L161.716 128.2L147.941 118.014L147.346 118.818ZM160.966 128.39L158.312 134.037L159.217 134.462L161.871 128.815L160.966 128.39ZM150.307 128.445C149.543 130.07 149.281 131.564 149.612 132.896L150.582 132.654C150.326 131.624 150.505 130.373 151.212 128.87L150.307 128.445ZM149.612 132.896C149.949 134.252 150.877 135.259 152.301 135.928L152.727 135.023C151.515 134.454 150.832 133.66 150.582 132.654L149.612 132.896ZM152.301 135.928C153.317 136.405 154.312 136.434 155.231 135.942L154.759 135.06C154.165 135.378 153.507 135.39 152.727 135.023L152.301 135.928ZM155.224 135.945C156.129 135.477 156.85 134.591 157.42 133.379L156.515 132.953C155.996 134.058 155.401 134.728 154.765 135.057L155.224 135.945ZM157.42 133.379L159.134 129.73L158.229 129.304L156.515 132.953L157.42 133.379ZM158.979 129.115L152.802 124.541L152.207 125.345L158.384 129.919L158.979 129.115ZM152.052 124.731L150.307 128.445L151.212 128.87L152.957 125.156L152.052 124.731Z" fill="black"/>
<path d="M143.112 156.012L142.731 156.336L143.125 156.801L143.504 156.323L143.112 156.012ZM132.023 142.952L131.631 142.642L131.377 142.964L131.642 143.276L132.023 142.952ZM133.512 141.07L133.893 140.747L133.499 140.282L133.12 140.76L133.512 141.07ZM138.423 146.854L138.042 147.178L138.437 147.643L138.815 147.164L138.423 146.854ZM144.41 139.288L144.802 139.599L145.057 139.277L144.791 138.965L144.41 139.288ZM139.499 133.505L139.107 133.194L138.853 133.516L139.118 133.828L139.499 133.505ZM140.989 131.623L141.37 131.299L140.975 130.834L140.597 131.312L140.989 131.623ZM152.078 144.683L152.47 144.993L152.724 144.672L152.459 144.359L152.078 144.683ZM150.588 146.565L150.207 146.888L150.602 147.353L150.98 146.875L150.588 146.565ZM145.836 140.968L146.217 140.644L145.822 140.179L145.444 140.657L145.836 140.968ZM139.849 148.533L139.457 148.223L139.202 148.544L139.468 148.857L139.849 148.533ZM144.601 154.13L144.993 154.441L145.248 154.119L144.982 153.807L144.601 154.13ZM143.493 155.689L132.404 142.629L131.642 143.276L142.731 156.336L143.493 155.689ZM132.415 143.263L133.904 141.381L133.12 140.76L131.631 142.642L132.415 143.263ZM133.131 141.394L138.042 147.178L138.804 146.53L133.893 140.747L133.131 141.394ZM138.815 147.164L144.802 139.599L144.018 138.978L138.031 146.544L138.815 147.164ZM144.791 138.965L139.881 133.181L139.118 133.828L144.029 139.612L144.791 138.965ZM139.891 133.815L141.381 131.933L140.597 131.312L139.107 133.194L139.891 133.815ZM140.608 131.946L151.696 145.006L152.459 144.359L141.37 131.299L140.608 131.946ZM151.686 144.373L150.196 146.255L150.98 146.875L152.47 144.993L151.686 144.373ZM150.969 146.241L146.217 140.644L145.455 141.291L150.207 146.888L150.969 146.241ZM145.444 140.657L139.457 148.223L140.241 148.844L146.228 141.278L145.444 140.657ZM139.468 148.857L144.22 154.454L144.982 153.807L140.23 148.21L139.468 148.857ZM144.209 153.82L142.72 155.702L143.504 156.323L144.993 154.441L144.209 153.82Z" fill="black"/>
<path d="M128.009 146.871L128.105 147.362L128.105 147.362L128.009 146.871ZM131.666 147.173L131.855 146.709L131.852 146.708L131.666 147.173ZM136.793 154.372L136.299 154.448L136.299 154.448L136.793 154.372ZM136.189 159.444L136.651 159.635L136.652 159.633L136.189 159.444ZM128.865 165.668L128.769 165.177L128.766 165.177L128.865 165.668ZM125.174 165.361L125.362 164.898L125.359 164.897L125.174 165.361ZM120.062 158.181L120.556 158.105L120.556 158.105L120.062 158.181ZM120.685 153.094L120.223 152.904L120.685 153.094ZM122.726 153.854L123.193 154.033L123.193 154.033L122.726 153.854ZM122.345 157.723L121.853 157.809L121.853 157.812L122.345 157.723ZM127.443 163.43L127.494 162.933L127.486 162.932L127.443 163.43ZM134.129 158.699L134.596 158.878L134.596 158.878L134.129 158.699ZM134.514 154.796L135.007 154.713L135.006 154.708L134.514 154.796ZM129.416 149.089L129.464 148.591L129.46 148.591L129.416 149.089ZM124.408 149.157C125.666 148.187 126.899 147.598 128.105 147.362L127.913 146.38C126.521 146.652 125.149 147.323 123.797 148.366L124.408 149.157ZM128.105 147.362C129.318 147.124 130.438 147.22 131.481 147.637L131.852 146.708C130.616 146.214 129.299 146.109 127.913 146.38L128.105 147.362ZM131.478 147.636C132.534 148.066 133.47 148.798 134.283 149.852L135.075 149.242C134.169 148.066 133.096 147.215 131.855 146.709L131.478 147.636ZM134.283 149.852C135.378 151.272 136.046 152.803 136.299 154.448L137.287 154.296C137.007 152.473 136.266 150.786 135.075 149.242L134.283 149.852ZM136.299 154.448C136.551 156.092 136.361 157.691 135.725 159.256L136.652 159.633C137.355 157.903 137.568 156.121 137.287 154.296L136.299 154.448ZM135.726 159.254C135.082 160.821 134.002 162.197 132.466 163.381L133.076 164.173C134.733 162.895 135.932 161.383 136.651 159.635L135.726 159.254ZM132.466 163.381C131.207 164.351 129.975 164.941 128.769 165.177L128.961 166.158C130.352 165.886 131.724 165.215 133.076 164.173L132.466 163.381ZM128.766 165.177C127.543 165.423 126.413 165.326 125.362 164.898L124.985 165.825C126.232 166.332 127.563 166.439 128.963 166.158L128.766 165.177ZM125.359 164.897C124.315 164.48 123.385 163.756 122.572 162.701L121.78 163.311C122.686 164.487 123.755 165.333 124.988 165.826L125.359 164.897ZM122.572 162.701C121.477 161.281 120.808 159.75 120.556 158.105L119.567 158.257C119.847 160.08 120.589 161.767 121.78 163.311L122.572 162.701ZM120.556 158.105C120.304 156.463 120.499 154.859 121.147 153.284L120.223 152.904C119.507 154.643 119.287 156.431 119.567 158.257L120.556 158.105ZM121.147 153.284C121.792 151.718 122.872 150.342 124.408 149.157L123.797 148.366C122.14 149.643 120.942 151.155 120.223 152.904L121.147 153.284ZM124.931 150.189C123.675 151.157 122.778 152.319 122.259 153.675L123.193 154.033C123.639 152.867 124.415 151.85 125.541 150.981L124.931 150.189ZM122.259 153.675C121.744 155.02 121.608 156.401 121.853 157.809L122.838 157.638C122.625 156.409 122.742 155.21 123.193 154.033L122.259 153.675ZM121.853 157.812C122.107 159.226 122.696 160.529 123.611 161.717L124.403 161.107C123.58 160.039 123.061 158.883 122.837 157.635L121.853 157.812ZM123.611 161.717C124.63 163.039 125.896 163.798 127.399 163.928L127.486 162.932C126.304 162.83 125.28 162.243 124.403 161.107L123.611 161.717ZM127.391 163.928C128.898 164.084 130.415 163.528 131.924 162.364L131.313 161.572C129.934 162.636 128.667 163.055 127.494 162.933L127.391 163.928ZM131.924 162.364C133.179 161.396 134.077 160.234 134.596 158.878L133.662 158.52C133.216 159.686 132.44 160.703 131.313 161.572L131.924 162.364ZM134.596 158.878C135.111 157.533 135.247 156.141 135.007 154.713L134.021 154.879C134.232 156.133 134.112 157.343 133.662 158.52L134.596 158.878ZM135.006 154.708C134.753 153.294 134.169 151.997 133.262 150.821L132.47 151.432C133.283 152.486 133.798 153.635 134.022 154.884L135.006 154.708ZM133.262 150.821C132.243 149.5 130.974 148.736 129.464 148.591L129.369 149.587C130.563 149.701 131.594 150.295 132.47 151.432L133.262 150.821ZM129.46 148.591C127.954 148.46 126.439 149.026 124.931 150.189L125.541 150.981C126.922 149.916 128.194 149.485 129.373 149.587L129.46 148.591Z" fill="black"/>
<path d="M117.269 169.769L116.783 169.887L116.928 170.479L117.48 170.222L117.269 169.769ZM122.468 167.345L122.953 167.224L122.807 166.635L122.257 166.892L122.468 167.345ZM122.98 169.41L123.192 169.863L123.565 169.689L123.466 169.289L122.98 169.41ZM110.386 175.282L109.9 175.397L110.041 175.994L110.597 175.735L110.386 175.282ZM109.895 173.207L109.684 172.754L109.315 172.926L109.409 173.322L109.895 173.207ZM115.094 170.783L115.305 171.236L115.677 171.063L115.58 170.665L115.094 170.783ZM111.552 156.202L111.341 155.748L110.97 155.922L111.067 156.32L111.552 156.202ZM113.706 155.198L114.192 155.079L114.047 154.487L113.495 154.744L113.706 155.198ZM117.48 170.222L122.679 167.798L122.257 166.892L117.058 169.316L117.48 170.222ZM121.983 167.465L122.495 169.53L123.466 169.289L122.953 167.224L121.983 167.465ZM122.769 168.956L110.175 174.829L110.597 175.735L123.192 169.863L122.769 168.956ZM110.873 175.167L110.382 173.092L109.409 173.322L109.9 175.397L110.873 175.167ZM110.107 173.66L115.305 171.236L114.883 170.33L109.684 172.754L110.107 173.66ZM115.58 170.665L112.038 156.084L111.067 156.32L114.608 170.901L115.58 170.665ZM111.764 156.655L113.917 155.651L113.495 154.744L111.341 155.748L111.764 156.655ZM113.22 155.316L116.783 169.887L117.755 169.65L114.192 155.079L113.22 155.316Z" fill="black"/>
<path d="M101.516 160.441L101.393 160.926L101.393 160.926L101.516 160.441ZM104.694 162.275L105.062 161.937L105.06 161.934L104.694 162.275ZM106.257 170.974L105.777 170.832L105.777 170.832L106.257 170.974ZM103.545 175.303L103.882 175.673L103.883 175.671L103.545 175.303ZM94.2648 177.804L94.3875 177.319L94.3849 177.318L94.2648 177.804ZM91.0579 175.951L91.4261 175.613L91.4239 175.611L91.0579 175.951ZM89.5005 167.276L89.9798 167.418L89.9798 167.418L89.5005 167.276ZM92.2361 162.941L91.8992 162.572L92.2361 162.941ZM93.757 164.5L94.103 164.861L94.103 164.861L93.757 164.5ZM91.761 167.837L91.279 167.704L91.2783 167.706L91.761 167.837ZM93.9341 175.173L94.1931 174.746L94.1858 174.741L93.9341 175.173ZM102 173.75L102.346 174.111L102.346 174.111L102 173.75ZM104.015 170.384L104.496 170.52L104.497 170.515L104.015 170.384ZM101.841 163.048L102.097 162.618L102.093 162.616L101.841 163.048ZM97.2833 160.971C98.8354 160.631 100.201 160.624 101.393 160.926L101.639 159.956C100.264 159.608 98.7367 159.629 97.0692 159.994L97.2833 160.971ZM101.393 160.926C102.591 161.229 103.563 161.794 104.328 162.616L105.06 161.934C104.154 160.96 103.007 160.303 101.639 159.956L101.393 160.926ZM104.326 162.613C105.097 163.453 105.631 164.514 105.916 165.815L106.893 165.601C106.576 164.151 105.969 162.924 105.062 161.937L104.326 162.613ZM105.916 165.815C106.3 167.567 106.251 169.236 105.777 170.832L106.736 171.116C107.261 169.348 107.311 167.507 106.893 165.601L105.916 165.815ZM105.777 170.832C105.304 172.426 104.449 173.791 103.206 174.935L103.883 175.671C105.257 174.407 106.21 172.886 106.736 171.116L105.777 170.832ZM103.208 174.934C101.956 176.075 100.392 176.858 98.4974 177.273L98.7115 178.25C100.756 177.802 102.485 176.946 103.882 175.673L103.208 174.934ZM98.4974 177.273C96.9452 177.613 95.5793 177.621 94.3875 177.319L94.1421 178.288C95.5168 178.636 97.044 178.615 98.7115 178.25L98.4974 177.273ZM94.3849 177.318C93.1735 177.019 92.1934 176.448 91.4261 175.613L90.6896 176.289C91.6004 177.281 92.7583 177.946 94.1447 178.289L94.3849 177.318ZM91.4239 175.611C90.6578 174.787 90.1259 173.735 89.8408 172.434L88.8639 172.648C89.1816 174.098 89.7867 175.319 90.6919 176.292L91.4239 175.611ZM89.8408 172.434C89.4568 170.683 89.506 169.013 89.9798 167.418L89.0212 167.133C88.496 168.902 88.4463 170.743 88.8639 172.648L89.8408 172.434ZM89.9798 167.418C90.4528 165.825 91.3145 164.458 92.573 163.311L91.8992 162.572C90.5092 163.839 89.5472 165.362 89.0212 167.133L89.9798 167.418ZM92.573 163.311C93.8245 162.17 95.3888 161.386 97.2833 160.971L97.0692 159.994C95.0252 160.442 93.296 161.298 91.8992 162.572L92.573 163.311ZM97.3155 162.127C95.767 162.466 94.4593 163.134 93.411 164.139L94.103 164.861C95.0038 163.997 96.1398 163.409 97.5296 163.104L97.3155 162.127ZM93.411 164.139C92.372 165.135 91.6593 166.326 91.279 167.704L92.243 167.97C92.5749 166.767 93.1928 165.733 94.103 164.861L93.411 164.139ZM91.2783 167.706C90.9036 169.094 90.8798 170.524 91.2009 171.989L92.1777 171.775C91.8891 170.458 91.9131 169.191 92.2437 167.967L91.2783 167.706ZM91.2009 171.989C91.5581 173.619 92.3784 174.846 93.6823 175.605L94.1858 174.741C93.1612 174.144 92.485 173.177 92.1777 171.775L91.2009 171.989ZM93.6751 175.601C94.9709 176.386 96.58 176.53 98.4417 176.122L98.2276 175.146C96.526 175.519 95.2013 175.356 94.193 174.746L93.6751 175.601ZM98.4417 176.122C99.9902 175.783 101.298 175.116 102.346 174.111L101.654 173.389C100.753 174.252 99.6175 174.841 98.2276 175.146L98.4417 176.122ZM102.346 174.111C103.386 173.114 104.104 171.914 104.496 170.52L103.533 170.249C103.189 171.473 102.564 172.517 101.654 173.389L102.346 174.111ZM104.497 170.515C104.872 169.128 104.898 167.706 104.58 166.256L103.603 166.47C103.888 167.77 103.863 169.029 103.532 170.254L104.497 170.515ZM104.58 166.256C104.223 164.626 103.401 163.393 102.097 162.618L101.586 163.477C102.617 164.09 103.296 165.068 103.603 166.47L104.58 166.256ZM102.093 162.616C100.787 161.854 99.1757 161.719 97.3155 162.127L97.5296 163.104C99.2328 162.731 100.567 162.884 101.59 163.48L102.093 162.616Z" fill="black"/>
<path d="M74.9765 170.15L74.9645 170.65L75.3757 170.66L75.4646 170.259L74.9765 170.15ZM72.6731 170.095L72.1853 169.985L72.0514 170.58L72.6611 170.595L72.6731 170.095ZM74.1509 163.529L73.8433 163.135L73.7024 163.245L73.6631 163.419L74.1509 163.529ZM76.995 162.06L77.1459 162.537L77.1459 162.537L76.995 162.06ZM84.5687 162.578L84.8006 162.135L84.7983 162.134L84.5687 162.578ZM87.2927 165.116L87.7281 164.87L87.7236 164.863L87.2927 165.116ZM86.7691 173.938L86.3373 173.686L86.3373 173.686L86.7691 173.938ZM83.0587 177.498L83.2963 177.938L83.2963 177.938L83.0587 177.498ZM73.7812 177.948L73.9826 177.49L73.9803 177.489L73.7812 177.948ZM71.164 175.965L70.85 175.576L70.4699 175.882L70.7676 176.269L71.164 175.965ZM72.9266 174.542L73.3146 174.227L73.0003 173.841L72.6126 174.153L72.9266 174.542ZM74.9315 176.031L75.1283 175.571L75.1203 175.568L74.9315 176.031ZM81.8787 175.645L81.638 175.207L81.638 175.207L81.8787 175.645ZM84.7058 172.88L85.1387 173.131L85.1398 173.129L84.7058 172.88ZM84.3381 165.189L84.6855 164.83L84.6823 164.827L84.3381 165.189ZM76.1879 164.682L75.9348 164.251L75.7469 164.361L75.6997 164.574L76.1879 164.682ZM74.9884 169.651L72.6851 169.595L72.6611 170.595L74.9645 170.65L74.9884 169.651ZM73.1609 170.205L74.6387 163.638L73.6631 163.419L72.1853 169.985L73.1609 170.205ZM74.4586 163.923C75.2229 163.326 76.1167 162.863 77.1459 162.537L76.844 161.584C75.7122 161.942 74.71 162.458 73.8433 163.135L74.4586 163.923ZM77.1459 162.537C78.1736 162.212 79.2267 162.062 80.3073 162.088L80.3312 161.088C79.1405 161.06 77.9773 161.225 76.844 161.584L77.1459 162.537ZM80.3073 162.088C81.8784 162.126 83.2176 162.443 84.3392 163.022L84.7983 162.134C83.517 161.472 82.0231 161.129 80.3312 161.088L80.3073 162.088ZM84.3368 163.021C85.4461 163.602 86.2822 164.385 86.8617 165.37L87.7236 164.863C87.0421 163.704 86.0622 162.796 84.8006 162.135L84.3368 163.021ZM86.8573 165.362C87.4216 166.361 87.6952 167.517 87.6634 168.846L88.6631 168.87C88.6987 167.384 88.392 166.045 87.728 164.87L86.8573 165.362ZM87.6634 168.846C87.6204 170.639 87.1764 172.249 86.3373 173.686L87.2009 174.19C88.1309 172.597 88.6163 170.82 88.6631 168.87L87.6634 168.846ZM86.3373 173.686C85.5004 175.12 84.3318 176.242 82.8211 177.058L83.2963 177.938C84.9635 177.038 86.2686 175.787 87.2009 174.19L86.3373 173.686ZM82.8211 177.058C81.319 177.869 79.581 178.259 77.592 178.211L77.568 179.211C79.7058 179.262 81.6203 178.843 83.2963 177.938L82.8211 177.058ZM77.592 178.211C76.1867 178.178 74.9874 177.933 73.9826 177.49L73.5798 178.406C74.7289 178.911 76.0622 179.175 77.568 179.211L77.592 178.211ZM73.9803 177.489C72.956 177.045 72.1549 176.433 71.5604 175.66L70.7676 176.269C71.4768 177.192 72.4205 177.902 73.5822 178.407L73.9803 177.489ZM71.478 176.354L73.2406 174.932L72.6126 174.153L70.85 175.576L71.478 176.354ZM72.5386 174.858C73.1353 175.592 73.8719 176.139 74.7427 176.494L75.1203 175.568C74.4061 175.277 73.8061 174.832 73.3146 174.227L72.5386 174.858ZM74.7347 176.491C75.5977 176.86 76.5949 177.051 77.7152 177.078L77.7392 176.078C76.7161 176.054 75.8495 175.88 75.1283 175.571L74.7347 176.491ZM77.7152 177.078C79.358 177.117 80.8314 176.791 82.1195 176.084L81.638 175.207C80.5258 175.818 79.2315 176.114 77.7392 176.078L77.7152 177.078ZM82.1195 176.084C83.3995 175.38 84.4084 174.394 85.1387 173.131L84.273 172.63C83.6341 173.735 82.7582 174.592 81.638 175.207L82.1195 176.084ZM85.1398 173.129C85.8526 171.882 86.2236 170.488 86.2603 168.956L85.2606 168.933C85.2275 170.312 84.8954 171.542 84.2718 172.632L85.1398 173.129ZM86.2603 168.956C86.3004 167.286 85.7853 165.892 84.6854 164.83L83.9907 165.549C84.8618 166.39 85.295 167.5 85.2606 168.933L86.2603 168.956ZM84.6823 164.827C83.5761 163.777 81.9938 163.265 80.0161 163.217L79.9921 164.217C81.8213 164.261 83.1284 164.73 83.9938 165.552L84.6823 164.827ZM80.0161 163.217C78.5355 163.182 77.171 163.525 75.9348 164.251L76.441 165.113C77.5099 164.486 78.6895 164.186 79.9921 164.217L80.0161 163.217ZM75.6997 164.574L74.4883 170.042L75.4646 170.259L76.6761 164.79L75.6997 164.574Z" fill="black"/>
<path d="M61.2132 163.726L61.2157 164.226L61.8642 164.223L61.6961 163.596L61.2132 163.726ZM59.5863 157.665L59.7097 157.18L58.882 156.97L59.1034 157.795L59.5863 157.665ZM62.0517 158.293L62.5337 158.16L62.4565 157.88L62.175 157.808L62.0517 158.293ZM63.6219 163.992L63.1399 164.125L63.217 164.405L63.4985 164.477L63.6219 163.992ZM68.413 165.212L68.2897 165.697L68.6884 165.798L68.8648 165.427L68.413 165.212ZM70.6571 160.484L70.7805 159.999L70.3818 159.898L70.2054 160.269L70.6571 160.484ZM73.0062 161.082L73.4571 161.298L73.7206 160.748L73.1295 160.597L73.0062 161.082ZM65.6049 176.533L65.4815 177.018L65.8788 177.119L66.0558 176.749L65.6049 176.533ZM55.4353 172.607L55.8355 172.307L55.8305 172.3L55.4353 172.607ZM59.3224 166.191L59.1123 165.738L59.1123 165.738L59.3224 166.191ZM64.1897 174.018L64.0663 174.503L64.4633 174.604L64.6405 174.235L64.1897 174.018ZM67.5143 167.088L67.9651 167.305L68.2291 166.754L67.6377 166.604L67.5143 167.088ZM55.2325 168.815C55.616 167.309 56.3273 166.189 57.3477 165.416L56.7436 164.619C55.5136 165.551 54.6931 166.881 54.2634 168.569L55.2325 168.815ZM57.3477 165.416C58.3725 164.639 59.6516 164.234 61.2157 164.226L61.2107 163.226C59.4685 163.235 57.9692 163.69 56.7436 164.619L57.3477 165.416ZM61.6961 163.596L60.0692 157.535L59.1034 157.795L60.7303 163.855L61.6961 163.596ZM59.4629 158.15L61.9283 158.777L62.175 157.808L59.7097 157.18L59.4629 158.15ZM61.5696 158.425L63.1399 164.125L64.1039 163.86L62.5337 158.16L61.5696 158.425ZM63.4985 164.477L63.9404 164.589L64.1872 163.62L63.7453 163.508L63.4985 164.477ZM63.9404 164.589L68.2897 165.697L68.5364 164.728L64.1872 163.62L63.9404 164.589ZM68.8648 165.427L71.1088 160.698L70.2054 160.269L67.9613 164.998L68.8648 165.427ZM70.5337 160.968L72.8828 161.566L73.1295 160.597L70.7805 159.999L70.5337 160.968ZM72.5552 160.866L65.154 176.317L66.0558 176.749L73.4571 161.298L72.5552 160.866ZM65.7283 176.049L59.6579 174.503L59.4112 175.472L65.4815 177.018L65.7283 176.049ZM59.6579 174.503C57.815 174.034 56.5686 173.285 55.8354 172.307L55.0352 172.907C55.9534 174.132 57.4398 174.97 59.4112 175.472L59.6579 174.503ZM55.8305 172.3C55.0935 171.35 54.8777 170.209 55.2325 168.815L54.2634 168.569C53.8444 170.214 54.0868 171.683 55.0401 172.913L55.8305 172.3ZM63.6141 165.579C61.874 165.136 60.357 165.161 59.1123 165.738L59.5325 166.645C60.4964 166.199 61.7583 166.139 63.3673 166.549L63.6141 165.579ZM59.1123 165.738C57.8442 166.325 57.0308 167.427 56.6425 168.952L57.6116 169.198C57.9418 167.901 58.5919 167.081 59.5325 166.645L59.1123 165.738ZM56.6425 168.952C56.3625 170.051 56.5181 171.043 57.1763 171.854L57.9528 171.224C57.5303 170.703 57.3941 170.052 57.6116 169.198L56.6425 168.952ZM57.1763 171.854C57.8112 172.637 58.826 173.169 60.1357 173.502L60.3824 172.533C59.1803 172.227 58.3987 171.774 57.9528 171.224L57.1763 171.854ZM60.1357 173.502L64.0663 174.503L64.313 173.534L60.3824 172.533L60.1357 173.502ZM64.6405 174.235L67.9651 167.305L67.0635 166.872L63.7389 173.802L64.6405 174.235ZM67.6377 166.604L63.6141 165.579L63.3673 166.549L67.391 167.573L67.6377 166.604Z" fill="black"/>
<path d="M46.4112 155.41L45.9249 155.294L45.8334 155.677L46.1849 155.856L46.4112 155.41ZM54.4145 159.474L54.1882 159.92L54.4333 160.044L54.6698 159.904L54.4145 159.474ZM58.6914 156.935L58.9178 156.489L58.6726 156.365L58.4362 156.505L58.6914 156.935ZM61.0025 158.109L61.2517 158.542L62.0534 158.082L61.2289 157.663L61.0025 158.109ZM43.5954 168.111L43.369 168.557L43.6101 168.68L43.8445 168.545L43.5954 168.111ZM41.4769 167.036L40.9892 166.926L40.9034 167.305L41.2505 167.482L41.4769 167.036ZM45.2955 150.133L45.5219 149.687L44.9493 149.396L44.8078 150.023L45.2955 150.133ZM47.414 151.209L47.9004 151.325L47.9919 150.941L47.6404 150.763L47.414 151.209ZM45.9699 157.339L46.1963 156.893L45.6305 156.606L45.4835 157.223L45.9699 157.339ZM43.9972 165.624L43.5108 165.508L43.2383 166.652L44.2514 166.054L43.9972 165.624ZM52.4539 160.632L52.7081 161.062L53.4933 160.599L52.6803 160.186L52.4539 160.632ZM46.1849 155.856L54.1882 159.92L54.6409 159.028L46.6376 154.964L46.1849 155.856ZM54.6698 159.904L58.9467 157.365L58.4362 156.505L54.1593 159.044L54.6698 159.904ZM58.4651 157.381L60.7762 158.554L61.2289 157.663L58.9178 156.489L58.4651 157.381ZM60.7534 157.675L43.3463 167.678L43.8445 168.545L61.2517 158.542L60.7534 157.675ZM43.8218 167.666L41.7033 166.59L41.2505 167.482L43.369 168.557L43.8218 167.666ZM41.9646 167.146L45.7832 150.243L44.8078 150.023L40.9892 166.926L41.9646 167.146ZM45.0691 150.579L47.1877 151.655L47.6404 150.763L45.5219 149.687L45.0691 150.579ZM46.9277 151.093L45.9249 155.294L46.8976 155.526L47.9004 151.325L46.9277 151.093ZM45.4835 157.223L43.5108 165.508L44.4837 165.74L46.4563 157.455L45.4835 157.223ZM44.2514 166.054L52.7081 161.062L52.1997 160.201L43.7431 165.193L44.2514 166.054ZM52.6803 160.186L46.1963 156.893L45.7435 157.785L52.2275 161.077L52.6803 160.186Z" fill="black"/>
<path d="M24.9379 152.761L25.4278 152.66L25.4261 152.652L24.9379 152.761ZM29.0662 146.708L29.2244 147.182L29.2264 147.181L29.0662 146.708ZM32.6397 146.64L32.7736 146.158L32.7681 146.157L32.6397 146.64ZM39.8425 151.562L39.5241 151.948L39.8407 152.209L40.1588 151.949L39.8425 151.562ZM43.8599 148.281L44.1784 147.896L43.8617 147.634L43.5437 147.894L43.8599 148.281ZM45.7103 149.81L46.0259 150.198L46.499 149.813L46.0287 149.424L45.7103 149.81ZM32.4208 160.623L32.1024 161.008L32.4184 161.269L32.7364 161.01L32.4208 160.623ZM31.1918 148.619L31.1955 148.119L31.1955 148.119L31.1918 148.619ZM27.3345 152.686L27.8219 152.574L27.8201 152.567L27.3345 152.686ZM32.2147 157.744L31.8963 158.13L32.2121 158.391L32.5301 158.132L32.2147 157.744ZM38.1797 152.897L38.4951 153.285L38.9687 152.9L38.4981 152.511L38.1797 152.897ZM27.9282 156.263C26.4753 155.063 25.6733 153.859 25.4278 152.66L24.4481 152.861C24.7552 154.36 25.7344 155.748 27.2914 157.034L27.9282 156.263ZM25.4261 152.652C25.1655 151.478 25.4574 150.354 26.3731 149.246L25.6021 148.609C24.5206 149.918 24.1128 151.35 24.4498 152.869L25.4261 152.652ZM26.3731 149.246C27.2311 148.207 28.1826 147.529 29.2244 147.182L28.9081 146.233C27.6588 146.65 26.5578 147.452 25.6021 148.609L26.3731 149.246ZM29.2264 147.181C30.2471 146.836 31.3373 146.811 32.5113 147.123L32.7681 146.157C31.4236 145.799 30.1314 145.82 28.9061 146.234L29.2264 147.181ZM32.5059 147.122C33.6729 147.446 34.8591 148.094 36.0639 149.09L36.7007 148.319C35.4136 147.255 34.1048 146.528 32.7736 146.158L32.5059 147.122ZM36.0639 149.09L39.5241 151.948L40.1609 151.177L36.7007 148.319L36.0639 149.09ZM40.1588 151.949L44.1762 148.669L43.5437 147.894L39.5263 151.175L40.1588 151.949ZM43.5415 148.667L45.3919 150.195L46.0287 149.424L44.1784 147.896L43.5415 148.667ZM45.3948 149.422L32.1053 160.235L32.7364 161.01L46.0259 150.198L45.3948 149.422ZM32.7393 160.237L27.9282 156.263L27.2914 157.034L32.1024 161.008L32.7393 160.237ZM35.334 149.898C33.9496 148.754 32.5671 148.129 31.1955 148.119L31.1881 149.119C32.2503 149.127 33.417 149.611 34.6971 150.669L35.334 149.898ZM31.1955 148.119C29.7982 148.109 28.5922 148.758 27.59 149.971L28.361 150.608C29.2133 149.576 30.1516 149.111 31.1881 149.119L31.1955 148.119ZM27.59 149.971C26.8756 150.836 26.6006 151.793 26.8489 152.805L27.8201 152.567C27.6596 151.913 27.812 151.272 28.361 150.608L27.59 149.971ZM26.8472 152.798C27.0753 153.791 27.7547 154.709 28.7877 155.562L29.4245 154.791C28.4838 154.014 27.9821 153.271 27.8218 152.574L26.8472 152.798ZM28.7877 155.562L31.8963 158.13L32.5332 157.359L29.4245 154.791L28.7877 155.562ZM32.5301 158.132L38.4951 153.285L37.8644 152.509L31.8994 157.356L32.5301 158.132ZM38.4981 152.511L35.334 149.898L34.6971 150.669L37.8613 153.282L38.4981 152.511Z" fill="black"/>
<path d="M10.4185 136.079L10.1998 135.63L9.65134 135.897L10.0206 136.382L10.4185 136.079ZM25.8242 128.583L26.2221 128.28L25.974 127.954L25.6054 128.133L25.8242 128.583ZM27.2771 130.493L27.4959 130.943L28.0443 130.676L27.6751 130.19L27.2771 130.493ZM20.4546 133.813L20.2358 133.363L19.6874 133.63L20.0567 134.116L20.4546 133.813ZM26.2955 141.492L25.8976 141.795L26.1457 142.121L26.5143 141.942L26.2955 141.492ZM33.118 138.172L33.516 137.87L33.2678 137.543L32.8992 137.723L33.118 138.172ZM34.571 140.082L34.7898 140.532L35.3382 140.265L34.9689 139.78L34.571 140.082ZM19.1654 147.579L18.7674 147.882L19.0155 148.208L19.3841 148.028L19.1654 147.579ZM17.7124 145.669L17.4936 145.219L16.9452 145.486L17.3144 145.971L17.7124 145.669ZM24.3148 142.456L24.5336 142.906L25.082 142.639L24.7128 142.153L24.3148 142.456ZM18.4739 134.777L18.8719 134.474L18.6237 134.148L18.2551 134.327L18.4739 134.777ZM11.8715 137.99L11.4735 138.292L11.7217 138.619L12.0903 138.439L11.8715 137.99ZM10.6373 136.529L26.0429 129.033L25.6054 128.133L10.1998 135.63L10.6373 136.529ZM25.4262 128.886L26.8792 130.796L27.6751 130.19L26.2221 128.28L25.4262 128.886ZM27.0583 130.044L20.2358 133.363L20.6734 134.263L27.4959 130.943L27.0583 130.044ZM20.0567 134.116L25.8976 141.795L26.6935 141.189L20.8526 133.51L20.0567 134.116ZM26.5143 141.942L33.3368 138.622L32.8992 137.723L26.0768 141.042L26.5143 141.942ZM32.7201 138.475L34.173 140.385L34.9689 139.78L33.516 137.87L32.7201 138.475ZM34.3522 139.633L18.9466 147.129L19.3841 148.028L34.7898 140.532L34.3522 139.633ZM19.5633 147.276L18.1104 145.366L17.3144 145.971L18.7674 147.882L19.5633 147.276ZM17.9312 146.118L24.5336 142.906L24.096 142.006L17.4936 145.219L17.9312 146.118ZM24.7128 142.153L18.8719 134.474L18.0759 135.08L23.9168 142.759L24.7128 142.153ZM18.2551 134.327L11.6527 137.54L12.0903 138.439L18.6927 135.226L18.2551 134.327ZM12.2695 137.687L10.8165 135.777L10.0206 136.382L11.4735 138.292L12.2695 137.687Z" fill="black"/>
<path d="M16.8457 122.236L16.7237 122.721L16.8418 122.75L16.9605 122.722L16.8457 122.236ZM22.5402 120.893L22.9947 120.685L22.8241 120.313L22.4254 120.407L22.5402 120.893ZM23.54 123.075L23.6552 123.562L24.2487 123.421L23.9946 122.867L23.54 123.075ZM17.7047 124.456L17.5896 123.969L17.4434 124.004L17.3405 124.113L17.7047 124.456ZM9.62735 133.041L9.17281 133.25L9.48238 133.925L9.99152 133.384L9.62735 133.041ZM8.64746 130.903L8.28316 130.561L8.0528 130.806L8.19292 131.112L8.64746 130.903ZM15.2321 123.899L15.5964 124.242L16.1776 123.623L15.3551 123.415L15.2321 123.899ZM4.14795 121.085L3.69341 121.294L3.79307 121.511L4.02492 121.57L4.14795 121.085ZM3.08807 118.773L3.21012 118.288L2.19923 118.033L2.63353 118.981L3.08807 118.773ZM16.9605 122.722L22.6549 121.38L22.4254 120.407L16.731 121.749L16.9605 122.722ZM22.0856 121.101L23.0855 123.283L23.9946 122.867L22.9947 120.685L22.0856 121.101ZM23.4249 122.588L17.5896 123.969L17.8198 124.942L23.6552 123.562L23.4249 122.588ZM17.3405 124.113L9.26318 132.699L9.99152 133.384L18.0689 124.798L17.3405 124.113ZM10.0819 132.833L9.102 130.695L8.19292 131.112L9.17281 133.25L10.0819 132.833ZM9.01175 131.246L15.5964 124.242L14.8678 123.557L8.28316 130.561L9.01175 131.246ZM15.3551 123.415L4.27099 120.601L4.02492 121.57L15.109 124.384L15.3551 123.415ZM4.60249 120.877L3.54261 118.564L2.63353 118.981L3.69341 121.294L4.60249 120.877ZM2.96601 119.257L16.7237 122.721L16.9678 121.751L3.21012 118.288L2.96601 119.257Z" fill="black"/>
<path d="M14.052 47.1962L14.2709 47.6458L14.2782 47.6421L14.052 47.1962ZM20.941 49.6911L20.5209 49.9622L20.522 49.964L20.941 49.6911ZM21.8945 53.1358L22.3944 53.1457L22.3945 53.1401L21.8945 53.1358ZM18.9161 61.3356L18.4636 61.123L18.2889 61.4946L18.6196 61.7382L18.9161 61.3356ZM23.0923 64.4119L23.5448 64.6246L23.7195 64.2529L23.3888 64.0094L23.0923 64.4119ZM22.0715 66.5841L21.7742 66.9861L22.2646 67.3487L22.524 66.7967L22.0715 66.5841ZM8.29584 56.3977L7.84332 56.1851L7.66898 56.5561L7.99856 56.7998L8.29584 56.3977ZM19.6177 52.2249L20.1029 52.1043L20.1029 52.1043L19.6177 52.2249ZM14.72 49.499L14.9496 49.9433L14.9561 49.9398L14.72 49.499ZM11.0328 55.483L10.5803 55.2703L10.4061 55.6411L10.7353 55.8848L11.0328 55.483ZM17.2101 60.0566L16.9126 60.4584L17.4031 60.8216L17.6627 60.2693L17.2101 60.0566ZM11.4024 50.9629C12.2039 49.2573 13.171 48.1813 14.2709 47.6458L13.8331 46.7467C12.4573 47.4166 11.3562 48.7099 10.4973 50.5376L11.4024 50.9629ZM14.2782 47.6421C15.351 47.098 16.5121 47.1015 17.8134 47.7131L18.2387 46.808C16.7017 46.0857 15.2135 46.0464 13.8258 46.7503L14.2782 47.6421ZM17.8134 47.7131C19.0327 48.2861 19.9256 49.0393 20.5209 49.9622L21.3612 49.4201C20.6473 48.3134 19.5969 47.4463 18.2387 46.808L17.8134 47.7131ZM20.522 49.964C21.11 50.8669 21.405 51.9167 21.3945 53.1315L22.3945 53.1401C22.4065 51.7489 22.0659 50.5023 21.36 49.4183L20.522 49.964ZM21.3946 53.1258C21.3706 54.3368 21.037 55.6469 20.3724 57.0611L21.2775 57.4865C21.9875 55.9756 22.367 54.527 22.3944 53.1457L21.3946 53.1258ZM20.3724 57.0611L18.4636 61.123L19.3686 61.5483L21.2775 57.4865L20.3724 57.0611ZM18.6196 61.7382L22.7957 64.8145L23.3888 64.0094L19.2127 60.9331L18.6196 61.7382ZM22.6397 64.1993L21.619 66.3714L22.524 66.7967L23.5448 64.6246L22.6397 64.1993ZM22.3688 66.182L8.59312 55.9957L7.99856 56.7998L21.7742 66.9861L22.3688 66.182ZM8.74836 56.6104L11.4024 50.9629L10.4973 50.5376L7.84332 56.1851L8.74836 56.6104ZM19.4082 56.555C20.1719 54.9298 20.4338 53.4355 20.1029 52.1043L19.1325 52.3455C19.3887 53.3764 19.2093 54.6269 18.5031 56.1296L19.4082 56.555ZM20.1029 52.1043C19.7658 50.7482 18.8376 49.7413 17.4134 49.072L16.9881 49.977C18.1993 50.5462 18.8824 51.3396 19.1325 52.3455L20.1029 52.1043ZM17.4134 49.072C16.3981 48.5948 15.4024 48.5663 14.484 49.0582L14.9561 49.9398C15.5497 49.6218 16.2078 49.6103 16.9881 49.977L17.4134 49.072ZM14.4905 49.0548C13.5854 49.5224 12.865 50.4086 12.2952 51.6212L13.2002 52.0465C13.7192 50.9422 14.3137 50.2717 14.9495 49.9432L14.4905 49.0548ZM12.2952 51.6212L10.5803 55.2703L11.4853 55.6956L13.2002 52.0465L12.2952 51.6212ZM10.7353 55.8848L16.9126 60.4584L17.5077 59.6547L11.3303 55.0811L10.7353 55.8848ZM17.6627 60.2693L19.4082 56.555L18.5031 56.1296L16.7576 59.8439L17.6627 60.2693Z" fill="black"/>
<path d="M26.6029 28.9876L26.984 28.6639L26.5893 28.199L26.2108 28.6773L26.6029 28.9876ZM37.6918 42.0476L38.0839 42.3579L38.3383 42.0365L38.073 41.724L37.6918 42.0476ZM36.2025 43.9296L35.8214 44.2532L36.2161 44.7182L36.5946 44.2399L36.2025 43.9296ZM31.2917 38.1459L31.6728 37.8223L31.2781 37.3573L30.8996 37.8356L31.2917 38.1459ZM25.3046 45.7115L24.9125 45.4012L24.6582 45.7227L24.9235 46.0351L25.3046 45.7115ZM30.2154 51.4952L30.6075 51.8055L30.8619 51.4841L30.5966 51.1716L30.2154 51.4952ZM28.7261 53.3772L28.3449 53.7009L28.7397 54.1658L29.1182 53.6875L28.7261 53.3772ZM17.6372 40.3172L17.2451 40.0069L16.9907 40.3283L17.256 40.6408L17.6372 40.3172ZM19.1265 38.4352L19.5076 38.1116L19.1129 37.6466L18.7344 38.1249L19.1265 38.4352ZM23.8789 44.0324L23.4977 44.356L23.8925 44.8209L24.271 44.3426L23.8789 44.0324ZM29.866 36.4667L30.258 36.777L30.5124 36.4556L30.2471 36.1431L29.866 36.4667ZM25.1136 30.8696L24.7215 30.5593L24.4671 30.8807L24.7324 31.1932L25.1136 30.8696ZM26.2217 29.3112L37.3107 42.3712L38.073 41.724L26.984 28.6639L26.2217 29.3112ZM37.2997 41.7373L35.8104 43.6193L36.5946 44.2399L38.0839 42.3579L37.2997 41.7373ZM36.5836 43.606L31.6728 37.8223L30.9105 38.4695L35.8214 44.2532L36.5836 43.606ZM30.8996 37.8356L24.9125 45.4012L25.6967 46.0218L31.6838 38.4561L30.8996 37.8356ZM24.9235 46.0351L29.8343 51.8189L30.5966 51.1716L25.6857 45.3879L24.9235 46.0351ZM29.8233 51.185L28.334 53.067L29.1182 53.6875L30.6075 51.8055L29.8233 51.185ZM29.1072 53.0536L18.0183 39.9936L17.256 40.6408L28.3449 53.7009L29.1072 53.0536ZM18.0292 40.6275L19.5186 38.7455L18.7344 38.1249L17.2451 40.0069L18.0292 40.6275ZM18.7453 38.7588L23.4977 44.356L24.26 43.7087L19.5076 38.1116L18.7453 38.7588ZM24.271 44.3426L30.258 36.777L29.4739 36.1564L23.4868 43.7221L24.271 44.3426ZM30.2471 36.1431L25.4947 30.5459L24.7324 31.1932L29.4848 36.7903L30.2471 36.1431ZM25.5056 31.1798L26.995 29.2978L26.2108 28.6773L24.7215 30.5593L25.5056 31.1798Z" fill="black"/>
<path d="M41.7056 38.1291L41.6097 37.6384L41.6097 37.6384L41.7056 38.1291ZM38.0485 37.8275L37.8599 38.2905L37.8629 38.2917L38.0485 37.8275ZM32.9216 30.628L33.4159 30.5521L33.4159 30.5521L32.9216 30.628ZM33.5261 25.5555L33.0637 25.3652L33.0628 25.3673L33.5261 25.5555ZM40.8501 19.3325L40.9461 19.8232L40.9488 19.8226L40.8501 19.3325ZM44.541 19.6385L44.3523 20.1015L44.3554 20.1028L44.541 19.6385ZM49.6531 26.8189L49.1589 26.8948L49.1589 26.8948L49.6531 26.8189ZM49.0297 31.9061L49.4921 32.0964L49.0297 31.9061ZM46.989 31.146L46.522 30.9674L46.522 30.9674L46.989 31.146ZM47.3694 27.2766L47.8621 27.1912L47.8616 27.1884L47.3694 27.2766ZM42.2721 21.5697L42.2205 22.0671L42.2289 22.0678L42.2721 21.5697ZM35.5858 26.3009L35.1188 26.1222L35.1188 26.1222L35.5858 26.3009ZM35.201 30.2039L34.7079 30.287L34.7088 30.2921L35.201 30.2039ZM40.2983 35.9109L40.2508 36.4086L40.2551 36.409L40.2983 35.9109ZM45.3067 35.8425C44.0483 36.8127 42.8162 37.4024 41.6097 37.6384L41.8016 38.6198C43.1933 38.3476 44.5655 37.6768 45.9173 36.6344L45.3067 35.8425ZM41.6097 37.6384C40.3972 37.8756 39.2766 37.7799 38.2341 37.3632L37.8629 38.2917C39.0984 38.7856 40.4159 38.8909 41.8016 38.6198L41.6097 37.6384ZM38.2371 37.3644C37.1808 36.9341 36.2449 36.2024 35.4317 35.1477L34.6398 35.7583C35.5461 36.9337 36.6187 37.7849 37.8599 38.2905L38.2371 37.3644ZM35.4317 35.1477C34.3367 33.7275 33.6685 32.1971 33.4159 30.5521L32.4274 30.7039C32.7075 32.5272 33.4487 34.2135 34.6398 35.7583L35.4317 35.1477ZM33.4159 30.5521C33.1634 28.9083 33.3535 27.3087 33.9893 25.7437L33.0628 25.3673C32.3601 27.0972 32.1472 28.8792 32.4274 30.7039L33.4159 30.5521ZM33.9884 25.7457C34.633 24.1794 35.7132 22.8033 37.2491 21.6191L36.6385 20.8271C34.9813 22.1049 33.7831 23.617 33.0637 25.3652L33.9884 25.7457ZM37.2491 21.6191C38.5075 20.6488 39.7396 20.0592 40.9461 19.8232L40.7542 18.8418C39.3625 19.114 37.9903 19.7848 36.6385 20.8271L37.2491 21.6191ZM40.9488 19.8226C42.1722 19.5765 43.3018 19.6736 44.3523 20.1015L44.7296 19.1754C43.4826 18.6675 42.1517 18.5606 40.7515 18.8423L40.9488 19.8226ZM44.3554 20.1028C45.3996 20.5201 46.3297 21.2444 47.1431 22.2992L47.935 21.6886C47.0288 20.5134 45.9603 19.6673 44.7265 19.1742L44.3554 20.1028ZM47.1431 22.2992C48.2381 23.7194 48.9063 25.2498 49.1589 26.8948L50.1474 26.743C49.8673 24.9197 49.1261 23.2334 47.935 21.6886L47.1431 22.2992ZM49.1589 26.8948C49.4112 28.5371 49.2154 30.1409 48.5673 31.7158L49.4921 32.0964C50.2079 30.3569 50.4278 28.5692 50.1474 26.743L49.1589 26.8948ZM48.5673 31.7158C47.9228 33.2822 46.8426 34.6583 45.3067 35.8425L45.9173 36.6344C47.5745 35.3567 48.7727 33.8445 49.4921 32.0964L48.5673 31.7158ZM44.7841 34.811C46.0395 33.843 46.937 32.6811 47.456 31.3247L46.522 30.9674C46.0761 32.1329 45.3002 33.1503 44.1735 34.019L44.7841 34.811ZM47.456 31.3247C47.9703 29.9804 48.1064 28.5994 47.8621 27.1912L46.8768 27.3621C47.0901 28.5912 46.9726 29.7898 46.522 30.9674L47.456 31.3247ZM47.8616 27.1884C47.6081 25.7739 47.0192 24.4706 46.1033 23.2828L45.3114 23.8934C46.1345 24.9609 46.6536 26.1167 46.8773 27.3648L47.8616 27.1884ZM46.1033 23.2828C45.0844 21.9614 43.8188 21.202 42.3153 21.0716L42.2289 22.0678C43.4103 22.1704 44.4349 22.7566 45.3114 23.8934L46.1033 23.2828ZM42.3237 21.0724C40.8169 20.9161 39.3001 21.4722 37.7907 22.6359L38.4013 23.4279C39.7809 22.3641 41.0481 21.9454 42.2205 22.067L42.3237 21.0724ZM37.7907 22.6359C36.5353 23.6039 35.6378 24.7658 35.1188 26.1222L36.0528 26.4795C36.4987 25.3141 37.2746 24.2966 38.4013 23.4279L37.7907 22.6359ZM35.1188 26.1222C34.6042 27.4671 34.4673 28.8586 34.7079 30.287L35.6941 30.1209C35.4829 28.8671 35.6025 27.6565 36.0528 26.4795L35.1188 26.1222ZM34.7088 30.2921C34.9622 31.7058 35.5458 33.0029 36.4525 34.1788L37.2444 33.5682C36.4316 32.5141 35.917 31.3648 35.6932 30.1157L34.7088 30.2921ZM36.4525 34.1788C37.4715 35.5003 38.7406 36.2643 40.2508 36.4086L40.3459 35.4131C39.1516 35.2991 38.1208 34.7048 37.2444 33.5682L36.4525 34.1788ZM40.2551 36.409C41.761 36.5397 43.2759 35.9738 44.7841 34.811L44.1735 34.019C42.7926 35.0837 41.5206 35.5151 40.3416 35.4128L40.2551 36.409Z" fill="black"/>
<path d="M52.4456 15.2313L52.9313 15.1125L52.7865 14.5206L52.2343 14.7781L52.4456 15.2313ZM47.2469 17.6552L46.7616 17.7757L46.9079 18.3649L47.4582 18.1084L47.2469 17.6552ZM46.7343 15.5904L46.523 15.1372L46.1499 15.3112L46.2491 15.7108L46.7343 15.5904ZM59.3286 9.71819L59.8152 9.60309L59.6739 9.00555L59.1173 9.26503L59.3286 9.71819ZM59.8194 11.7932L60.0307 12.2463L60.3997 12.0743L60.306 11.6781L59.8194 11.7932ZM54.6208 14.2171L54.4095 13.7639L54.0382 13.937L54.1349 14.3351L54.6208 14.2171ZM58.1623 28.7984L58.3736 29.2516L58.7449 29.0784L58.6482 28.6804L58.1623 28.7984ZM56.0089 29.8024L55.5232 29.9212L55.6679 30.5131L56.2202 30.2556L56.0089 29.8024ZM52.2343 14.7781L47.0356 17.202L47.4582 18.1084L52.6569 15.6844L52.2343 14.7781ZM47.7322 17.5347L47.2196 15.4699L46.2491 15.7108L46.7616 17.7757L47.7322 17.5347ZM46.9456 16.0435L59.5399 10.1714L59.1173 9.26503L46.523 15.1372L46.9456 16.0435ZM58.8421 9.83328L59.3329 11.9082L60.306 11.6781L59.8152 9.60309L58.8421 9.83328ZM59.6082 11.34L54.4095 13.7639L54.8321 14.6702L60.0307 12.2463L59.6082 11.34ZM54.1349 14.3351L57.6764 28.9164L58.6482 28.6804L55.1066 14.0991L54.1349 14.3351ZM57.951 28.3452L55.7976 29.3493L56.2202 30.2556L58.3736 29.2516L57.951 28.3452ZM56.4946 29.6837L52.9313 15.1125L51.9599 15.35L55.5232 29.9212L56.4946 29.6837Z" fill="black"/>
<path d="M68.1989 24.5591L68.3216 24.0744L68.3216 24.0744L68.1989 24.5591ZM65.0206 22.725L64.6523 23.0632L64.6546 23.0656L65.0206 22.725ZM63.4581 14.0258L63.9374 14.1682L63.9374 14.1682L63.4581 14.0258ZM66.1702 9.69686L65.8333 9.3274L65.8316 9.32892L66.1702 9.69686ZM75.45 7.19628L75.3273 7.681L75.3299 7.68164L75.45 7.19628ZM78.6569 9.04869L78.2887 9.38691L78.2909 9.38931L78.6569 9.04869ZM80.2143 17.7244L79.735 17.5821L79.735 17.5821L80.2143 17.7244ZM77.4787 22.0585L77.8156 22.428L77.4787 22.0585ZM75.9578 20.5L75.6118 20.1391L75.6118 20.1391L75.9578 20.5ZM77.9538 17.1633L78.4358 17.2964L78.4365 17.2937L77.9538 17.1633ZM75.7808 9.82645L75.5217 10.2542L75.529 10.2584L75.7808 9.82645ZM67.7146 11.2503L67.3685 10.8893L67.3685 10.8893L67.7146 11.2503ZM65.7003 14.6155L65.2189 14.4801L65.2176 14.4851L65.7003 14.6155ZM67.8733 21.9524L67.6178 22.3822L67.6216 22.3844L67.8733 21.9524ZM72.4315 24.0287C70.8794 24.3689 69.5135 24.3761 68.3216 24.0744L68.0762 25.0438C69.4509 25.3918 70.9781 25.371 72.6456 25.0055L72.4315 24.0287ZM68.3216 24.0744C67.1239 23.7713 66.1515 23.2063 65.3866 22.3844L64.6546 23.0656C65.5609 24.0396 66.7074 24.6974 68.0762 25.0438L68.3216 24.0744ZM65.3889 22.3868C64.6173 21.5467 64.0834 20.4855 63.7983 19.1846L62.8215 19.3987C63.1393 20.8485 63.7458 22.0762 64.6523 23.0632L65.3889 22.3868ZM63.7983 19.1846C63.4144 17.4328 63.4635 15.7637 63.9374 14.1682L62.9788 13.8835C62.4536 15.6519 62.4039 17.4932 62.8215 19.3987L63.7983 19.1846ZM63.9374 14.1682C64.4108 12.574 65.2657 11.2086 66.5088 10.0648L65.8316 9.32892C64.4576 10.5932 63.5043 12.1138 62.9788 13.8835L63.9374 14.1682ZM66.5071 10.0663C67.7587 8.92509 69.323 8.14187 71.2174 7.72668L71.0034 6.74986C68.9593 7.19784 67.2302 8.05368 65.8333 9.3274L66.5071 10.0663ZM71.2174 7.72668C72.7696 7.38651 74.1355 7.37932 75.3273 7.68099L75.5727 6.71156C74.198 6.36362 72.6708 6.38442 71.0034 6.74986L71.2174 7.72668ZM75.3299 7.68164C76.5413 7.98137 77.5214 8.55145 78.2887 9.3869L79.0252 8.71048C78.1144 7.7188 76.9565 7.05395 75.5701 6.71091L75.3299 7.68164ZM78.2909 9.38931C79.057 10.2125 79.5889 11.2646 79.8741 12.5657L80.8509 12.3516C80.5332 10.902 79.9281 9.6807 79.023 8.70807L78.2909 9.38931ZM79.8741 12.5657C80.258 14.3174 80.2089 15.9866 79.735 17.5821L80.6936 17.8668C81.2188 16.0984 81.2685 14.257 80.8509 12.3516L79.8741 12.5657ZM79.735 17.5821C79.262 19.1748 78.4003 20.5415 77.1419 21.6891L77.8156 22.428C79.2056 21.1606 80.1676 19.6379 80.6936 17.8668L79.735 17.5821ZM77.1419 21.6891C75.8903 22.8303 74.326 23.6135 72.4315 24.0287L72.6456 25.0055C74.6896 24.5576 76.4188 23.7017 77.8156 22.428L77.1419 21.6891ZM72.3993 22.8728C73.9478 22.5334 75.2555 21.866 76.3039 20.8609L75.6118 20.1391C74.711 21.0026 73.575 21.5914 72.1852 21.896L72.3993 22.8728ZM76.3039 20.8609C77.3429 19.8649 78.0555 18.6741 78.4358 17.2964L77.4718 17.0303C77.1399 18.2328 76.522 19.2665 75.6118 20.1391L76.3039 20.8609ZM78.4365 17.2937C78.8112 15.9063 78.835 14.4763 78.5139 13.0112L77.5371 13.2253C77.8257 14.5421 77.8017 15.8089 77.4711 17.033L78.4365 17.2937ZM78.5139 13.0112C78.1567 11.3813 77.3364 10.1543 76.0325 9.39445L75.529 10.2584C76.5536 10.8555 77.2298 11.8231 77.5371 13.2253L78.5139 13.0112ZM76.0397 9.39874C74.7439 8.61413 73.1348 8.46943 71.2731 8.87744L71.4872 9.85426C73.1889 9.48132 74.5135 9.64368 75.5218 10.2542L76.0397 9.39874ZM71.2731 8.87744C69.7246 9.2168 68.4169 9.88428 67.3685 10.8893L68.0606 11.6112C68.9614 10.7476 70.0974 10.1588 71.4872 9.85426L71.2731 8.87744ZM67.3685 10.8893C66.329 11.8859 65.6112 13.0857 65.219 14.4801L66.1816 14.7509C66.5259 13.5269 67.1509 12.4833 68.0606 11.6112L67.3685 10.8893ZM65.2176 14.4851C64.8431 15.8716 64.8172 17.2937 65.135 18.7442L66.1119 18.5301C65.8269 17.2299 65.8522 15.9709 66.183 14.7459L65.2176 14.4851ZM65.135 18.7442C65.4923 20.3743 66.3138 21.607 67.6178 22.3822L68.1288 21.5226C67.0975 20.9095 66.4191 19.9321 66.1119 18.5301L65.135 18.7442ZM67.6216 22.3844C68.9276 23.1455 70.5391 23.2805 72.3993 22.8728L72.1852 21.896C70.482 22.2693 69.1476 22.1163 68.1251 21.5204L67.6216 22.3844Z" fill="black"/>
<path d="M94.7384 14.8496L94.7504 14.3497L94.3392 14.3399L94.2502 14.7415L94.7384 14.8496ZM97.0417 14.9048L97.5295 15.0146L97.6634 14.4196L97.0537 14.405L97.0417 14.9048ZM95.5639 21.4713L95.8716 21.8654L96.0125 21.7554L96.0517 21.5811L95.5639 21.4713ZM92.7199 22.9395L92.5689 22.4629L92.5689 22.4629L92.7199 22.9395ZM85.1461 22.4219L84.9142 22.8648L84.9165 22.866L85.1461 22.4219ZM82.4222 19.8838L81.9868 20.1298L81.9912 20.1374L82.4222 19.8838ZM82.9458 11.0618L83.3776 11.3139L83.3776 11.3139L82.9458 11.0618ZM86.6562 7.50176L86.4186 7.06182L86.4186 7.06182L86.6562 7.50176ZM95.9336 7.05201L95.7322 7.50966L95.7346 7.51068L95.9336 7.05201ZM98.5508 9.03531L98.8648 9.42444L99.2449 9.11775L98.9472 8.73056L98.5508 9.03531ZM96.7882 10.4575L96.4003 10.7729L96.7145 11.1594L97.1022 10.8466L96.7882 10.4575ZM94.7834 8.96899L94.5866 9.42871L94.5946 9.43199L94.7834 8.96899ZM87.8361 9.35457L88.0769 9.79278L88.0769 9.79278L87.8361 9.35457ZM85.009 12.1196L84.5762 11.8693L84.575 11.8714L85.009 12.1196ZM85.3768 19.8106L85.0294 20.1703L85.0325 20.1733L85.3768 19.8106ZM93.527 20.3181L93.7801 20.7493L93.968 20.639L94.0151 20.4263L93.527 20.3181ZM94.7264 15.3495L97.0297 15.4047L97.0537 14.405L94.7504 14.3497L94.7264 15.3495ZM96.5539 14.795L95.0761 21.3615L96.0517 21.5811L97.5295 15.0146L96.5539 14.795ZM95.2562 21.0772C94.4919 21.6738 93.5981 22.1369 92.5689 22.4629L92.8708 23.4162C94.0027 23.0578 95.0049 22.542 95.8716 21.8654L95.2562 21.0772ZM92.5689 22.4629C91.5412 22.7884 90.4882 22.938 89.4076 22.9121L89.3836 23.9119C90.5744 23.9404 91.7375 23.7751 92.8708 23.4162L92.5689 22.4629ZM89.4076 22.9121C87.8364 22.8745 86.4973 22.5574 85.3757 21.9777L84.9165 22.866C86.1979 23.5283 87.6917 23.8713 89.3836 23.9119L89.4076 22.9121ZM85.378 21.9789C84.2687 21.3982 83.4326 20.615 82.8531 19.6302L81.9912 20.1374C82.6727 21.2955 83.6526 22.2044 84.9142 22.8648L85.378 21.9789ZM82.8575 19.6379C82.2932 18.6391 82.0196 17.483 82.0515 16.1539L81.0518 16.1299C81.0161 17.6159 81.3229 18.9545 81.9868 20.1298L82.8575 19.6379ZM82.0515 16.1539C82.0945 14.3611 82.5385 12.7513 83.3776 11.3139L82.514 10.8098C81.5839 12.4029 81.0985 14.1798 81.0518 16.1299L82.0515 16.1539ZM83.3776 11.3139C84.2145 9.88036 85.383 8.75759 86.8938 7.9417L86.4186 7.06182C84.7513 7.96224 83.4462 9.21287 82.514 10.8098L83.3776 11.3139ZM86.8938 7.9417C88.3959 7.1305 90.1338 6.7409 92.1228 6.78859L92.1468 5.78888C90.009 5.73762 88.0946 6.1567 86.4186 7.06182L86.8938 7.9417ZM92.1228 6.78859C93.5282 6.82228 94.7274 7.06745 95.7322 7.50965L96.135 6.59437C94.9859 6.08867 93.6527 5.82498 92.1468 5.78888L92.1228 6.78859ZM95.7346 7.51068C96.7588 7.95519 97.5599 8.56681 98.1545 9.34007L98.9472 8.73056C98.238 7.80808 97.2944 7.0975 96.1327 6.59334L95.7346 7.51068ZM98.2369 8.64618L96.4743 10.0683L97.1022 10.8466L98.8648 9.42444L98.2369 8.64618ZM97.1762 10.142C96.5796 9.40822 95.843 8.86103 94.9721 8.50599L94.5946 9.43199C95.3087 9.72313 95.9087 10.1683 96.4003 10.7729L97.1762 10.142ZM94.9801 8.50933C94.1172 8.13992 93.1199 7.94882 91.9996 7.92196L91.9757 8.92168C92.9988 8.94621 93.8653 9.11988 94.5866 9.42864L94.9801 8.50933ZM91.9996 7.92196C90.3569 7.88257 88.8835 8.2086 87.5953 8.91636L88.0769 9.79278C89.189 9.18171 90.4833 8.88589 91.9757 8.92168L91.9996 7.92196ZM87.5953 8.91636C86.3153 9.61967 85.3065 10.6063 84.5762 11.8693L85.4419 12.3699C86.0807 11.2651 86.9566 10.4083 88.0769 9.79278L87.5953 8.91636ZM84.575 11.8714C83.8623 13.1176 83.4912 14.5119 83.4545 16.0435L84.4542 16.0674C84.4873 14.6879 84.8194 13.4583 85.443 12.3678L84.575 11.8714ZM83.4545 16.0435C83.4145 17.7143 83.9296 19.1079 85.0294 20.1703L85.7242 19.451C84.8531 18.6096 84.4199 17.4997 84.4542 16.0674L83.4545 16.0435ZM85.0325 20.1733C86.1388 21.2234 87.721 21.7354 89.6987 21.7828L89.7227 20.7831C87.8936 20.7392 86.5865 20.2696 85.721 19.448L85.0325 20.1733ZM89.6987 21.7828C91.1793 21.8183 92.5438 21.475 93.7801 20.7493L93.2738 19.8869C92.205 20.5144 91.0253 20.8143 89.7227 20.7831L89.6987 21.7828ZM94.0151 20.4263L95.2265 14.9577L94.2502 14.7415L93.0388 20.21L94.0151 20.4263Z" fill="black"/>
<path d="M108.502 21.2742L108.499 20.7742L107.851 20.7775L108.019 21.4038L108.502 21.2742ZM110.128 27.335L110.005 27.8195L110.833 28.0303L110.611 27.2053L110.128 27.335ZM107.663 26.7073L107.181 26.8401L107.258 27.1201L107.54 27.1918L107.663 26.7073ZM106.093 21.0076L106.575 20.8748L106.498 20.5948L106.216 20.5231L106.093 21.0076ZM101.302 19.7878L101.425 19.3032L101.026 19.2017L100.85 19.5734L101.302 19.7878ZM99.0577 24.5163L98.9343 25.0008L99.333 25.1023L99.5094 24.7306L99.0577 24.5163ZM96.7086 23.9182L96.2577 23.7022L95.9942 24.2522L96.5852 24.4027L96.7086 23.9182ZM104.11 8.46662L104.233 7.98208L103.836 7.88094L103.659 8.25062L104.11 8.46662ZM114.279 12.3932L113.879 12.6931L113.884 12.6995L114.279 12.3932ZM110.392 18.8085L110.603 19.2622L110.603 19.2622L110.392 18.8085ZM105.525 10.9816L105.648 10.497L105.251 10.3959L105.074 10.7653L105.525 10.9816ZM102.2 17.9115L101.75 17.6952L101.486 18.2455L102.077 18.396L102.2 17.9115ZM114.482 16.1845C114.099 17.691 113.387 18.8108 112.367 19.584L112.971 20.381C114.201 19.4488 115.022 18.1188 115.451 16.4312L114.482 16.1845ZM112.367 19.584C111.342 20.3607 110.063 20.7663 108.499 20.7742L108.504 21.7742C110.246 21.7654 111.746 21.3098 112.971 20.381L112.367 19.584ZM108.019 21.4038L109.646 27.4646L110.611 27.2053L108.984 21.1446L108.019 21.4038ZM110.252 26.8504L107.786 26.2227L107.54 27.1918L110.005 27.8195L110.252 26.8504ZM108.145 26.5745L106.575 20.8748L105.611 21.1404L107.181 26.8401L108.145 26.5745ZM106.216 20.5231L105.774 20.4106L105.528 21.3797L105.97 21.4922L106.216 20.5231ZM105.774 20.4106L101.425 19.3032L101.178 20.2723L105.528 21.3797L105.774 20.4106ZM100.85 19.5734L98.606 24.3019L99.5094 24.7306L101.753 20.0021L100.85 19.5734ZM99.181 24.0317L96.832 23.4336L96.5852 24.4027L98.9343 25.0008L99.181 24.0317ZM97.1596 24.1342L104.561 8.68262L103.659 8.25062L96.2577 23.7022L97.1596 24.1342ZM103.987 8.95116L110.057 10.4967L110.304 9.52763L104.233 7.98208L103.987 8.95116ZM110.057 10.4967C111.9 10.9659 113.146 11.7147 113.879 12.6931L114.68 12.0934C113.761 10.8681 112.275 10.0296 110.304 9.52763L110.057 10.4967ZM113.884 12.6995C114.621 13.6502 114.837 14.7911 114.482 16.1845L115.451 16.4312C115.87 14.7855 115.628 13.3166 114.675 12.0869L113.884 12.6995ZM106.101 19.4205C107.841 19.8635 109.358 19.8386 110.603 19.2622L110.182 18.3548C109.218 18.8011 107.957 18.8611 106.347 18.4514L106.101 19.4205ZM110.603 19.2622C111.871 18.6751 112.684 17.5734 113.072 16.0484L112.103 15.8016C111.773 17.0986 111.123 17.9192 110.182 18.3548L110.603 19.2622ZM113.072 16.0484C113.352 14.9488 113.197 13.9569 112.538 13.1458L111.762 13.7759C112.185 14.2966 112.321 14.9475 112.103 15.8016L113.072 16.0484ZM112.538 13.1458C111.904 12.3634 110.889 11.8312 109.579 11.4978L109.332 12.4669C110.534 12.7729 111.316 13.2265 111.762 13.7759L112.538 13.1458ZM109.579 11.4978L105.648 10.497L105.402 11.4661L109.332 12.4669L109.579 11.4978ZM105.074 10.7653L101.75 17.6952L102.651 18.1278L105.976 11.1978L105.074 10.7653ZM102.077 18.396L106.101 19.4205L106.347 18.4514L102.324 17.427L102.077 18.396Z" fill="black"/>
<path d="M123.304 29.5901L123.79 29.7062L123.881 29.3227L123.53 29.1442L123.304 29.5901ZM115.3 25.5261L115.527 25.0803L115.281 24.9558L115.045 25.0962L115.3 25.5261ZM111.023 28.0649L110.797 28.5107L111.042 28.6352L111.279 28.4948L111.023 28.0649ZM108.712 26.8913L108.463 26.4578L107.661 26.9185L108.486 27.3371L108.712 26.8913ZM126.119 16.8885L126.346 16.4427L126.105 16.3203L125.87 16.455L126.119 16.8885ZM128.238 17.9643L128.726 18.0745L128.811 17.6947L128.464 17.5185L128.238 17.9643ZM124.419 34.8671L124.193 35.3129L124.766 35.6036L124.907 34.9772L124.419 34.8671ZM122.301 33.7913L121.814 33.6752L121.723 34.0587L122.074 34.2371L122.301 33.7913ZM123.745 27.6608L123.519 28.1066L124.084 28.3939L124.231 27.7766L123.745 27.6608ZM125.718 19.3762L126.204 19.492L126.476 18.3476L125.463 18.9456L125.718 19.3762ZM117.261 24.3684L117.007 23.9378L116.222 24.4013L117.035 24.8142L117.261 24.3684ZM123.53 29.1442L115.527 25.0803L115.074 25.972L123.077 30.0359L123.53 29.1442ZM115.045 25.0962L110.768 27.6349L111.279 28.4948L115.555 25.9561L115.045 25.0962ZM111.25 27.619L108.939 26.4455L108.486 27.3371L110.797 28.5107L111.25 27.619ZM108.961 27.3248L126.369 17.3221L125.87 16.455L108.463 26.4578L108.961 27.3248ZM125.893 17.3344L128.012 18.4101L128.464 17.5185L126.346 16.4427L125.893 17.3344ZM127.75 17.8541L123.932 34.7569L124.907 34.9772L128.726 18.0745L127.75 17.8541ZM124.646 34.4212L122.527 33.3455L122.074 34.2371L124.193 35.3129L124.646 34.4212ZM122.787 33.9074L123.79 29.7062L122.817 29.474L121.814 33.6752L122.787 33.9074ZM124.231 27.7766L126.204 19.492L125.231 19.2604L123.258 27.545L124.231 27.7766ZM125.463 18.9456L117.007 23.9378L117.515 24.7989L125.972 19.8068L125.463 18.9456ZM117.035 24.8142L123.519 28.1066L123.971 27.215L117.487 23.9226L117.035 24.8142Z" fill="black"/>
<path d="M144.777 32.2392L144.287 32.3396L144.289 32.3475L144.777 32.2392ZM140.649 38.2924L140.49 37.818L140.488 37.8187L140.649 38.2924ZM137.075 38.3601L136.941 38.8419L136.947 38.8434L137.075 38.3601ZM129.872 33.4379L130.191 33.0524L129.874 32.7908L129.556 33.0506L129.872 33.4379ZM125.855 36.7188L125.536 37.1042L125.853 37.3658L126.171 37.106L125.855 36.7188ZM124.004 35.1903L123.689 34.8025L123.216 35.1874L123.686 35.5758L124.004 35.1903ZM137.294 24.3774L137.612 23.9919L137.296 23.7309L136.978 23.9896L137.294 24.3774ZM138.523 36.381L138.519 36.881L138.519 36.881L138.523 36.381ZM142.38 32.3142L141.893 32.4262L141.895 32.4333L142.38 32.3142ZM137.5 27.2558L137.818 26.8703L137.503 26.6095L137.185 26.8678L137.5 27.2558ZM131.535 32.1032L131.22 31.7151L130.746 32.1L131.217 32.4886L131.535 32.1032ZM141.787 28.7368C143.24 29.937 144.042 31.1411 144.287 32.3396L145.267 32.1389C144.96 30.6397 143.98 29.2519 142.423 27.9658L141.787 28.7368ZM144.289 32.3475C144.549 33.5219 144.257 34.6457 143.342 35.7542L144.113 36.3911C145.194 35.0818 145.602 33.65 145.265 32.1309L144.289 32.3475ZM143.342 35.7542C142.484 36.793 141.532 37.4707 140.49 37.818L140.807 38.7667C142.056 38.3502 143.157 37.5481 144.113 36.3911L143.342 35.7542ZM140.488 37.8187C139.468 38.1639 138.377 38.1889 137.203 37.8769L136.947 38.8434C138.291 39.2006 139.583 39.1804 140.809 38.766L140.488 37.8187ZM137.209 37.8784C136.042 37.5542 134.856 36.9057 133.651 35.9105L133.014 36.6815C134.301 37.7446 135.61 38.4722 136.941 38.8419L137.209 37.8784ZM133.651 35.9105L130.191 33.0524L129.554 33.8234L133.014 36.6815L133.651 35.9105ZM129.556 33.0506L125.539 36.3315L126.171 37.106L130.189 33.8251L129.556 33.0506ZM126.173 36.3333L124.323 34.8048L123.686 35.5758L125.536 37.1042L126.173 36.3333ZM124.32 35.5782L137.61 24.7653L136.978 23.9896L123.689 34.8025L124.32 35.5782ZM136.976 24.7629L141.787 28.7368L142.423 27.9658L137.612 23.9919L136.976 24.7629ZM134.381 35.1023C135.765 36.2458 137.148 36.8708 138.519 36.881L138.527 35.881C137.465 35.8731 136.298 35.3887 135.018 34.3313L134.381 35.1023ZM138.519 36.881C139.917 36.8914 141.123 36.2425 142.125 35.0292L141.354 34.3923C140.501 35.4242 139.563 35.8888 138.527 35.881L138.519 36.881ZM142.125 35.0292C142.839 34.1643 143.114 33.2069 142.866 32.195L141.895 32.4333C142.055 33.0873 141.903 33.7276 141.354 34.3923L142.125 35.0292ZM142.868 32.2022C142.639 31.2093 141.96 30.2914 140.927 29.4381L140.29 30.2091C141.231 30.9861 141.733 31.7286 141.893 32.4261L142.868 32.2022ZM140.927 29.4381L137.818 26.8703L137.182 27.6413L140.29 30.2091L140.927 29.4381ZM137.185 26.8678L131.22 31.7151L131.85 32.4912L137.815 27.6439L137.185 26.8678ZM131.217 32.4886L134.381 35.1023L135.018 34.3313L131.853 31.7177L131.217 32.4886Z" fill="black"/>
<path d="M159.296 48.9206L159.515 49.3702L160.063 49.1033L159.694 48.6179L159.296 48.9206ZM143.891 56.417L143.493 56.7197L143.741 57.0459L144.109 56.8666L143.891 56.417ZM142.438 54.5068L142.219 54.0572L141.671 54.324L142.04 54.8095L142.438 54.5068ZM149.26 51.1869L149.479 51.6365L150.027 51.3697L149.658 50.8842L149.26 51.1869ZM143.419 43.5079L143.817 43.2052L143.569 42.8789L143.201 43.0583L143.419 43.5079ZM136.597 46.8277L136.199 47.1304L136.447 47.4567L136.816 47.2773L136.597 46.8277ZM135.144 44.9175L134.925 44.4679L134.377 44.7348L134.746 45.2202L135.144 44.9175ZM150.549 37.4211L150.947 37.1184L150.699 36.7921L150.331 36.9715L150.549 37.4211ZM152.002 39.3313L152.221 39.7809L152.77 39.514L152.4 39.0286L152.002 39.3313ZM145.4 42.5441L145.181 42.0945L144.633 42.3613L145.002 42.8468L145.4 42.5441ZM151.241 50.2231L150.843 50.5258L151.091 50.852L151.46 50.6727L151.241 50.2231ZM157.843 47.0103L158.241 46.7076L157.993 46.3814L157.625 46.5607L157.843 47.0103ZM159.078 48.471L143.672 55.9674L144.109 56.8666L159.515 49.3702L159.078 48.471ZM144.289 56.1143L142.836 54.2041L142.04 54.8095L143.493 56.7197L144.289 56.1143ZM142.656 54.9564L149.479 51.6365L149.041 50.7373L142.219 54.0572L142.656 54.9564ZM149.658 50.8842L143.817 43.2052L143.021 43.8106L148.862 51.4896L149.658 50.8842ZM143.201 43.0583L136.378 46.3781L136.816 47.2773L143.638 43.9575L143.201 43.0583ZM136.995 46.525L135.542 44.6148L134.746 45.2202L136.199 47.1304L136.995 46.525ZM135.363 45.3671L150.768 37.8707L150.331 36.9715L134.925 44.4679L135.363 45.3671ZM150.152 37.7238L151.604 39.634L152.4 39.0286L150.947 37.1184L150.152 37.7238ZM151.784 38.8817L145.181 42.0945L145.619 42.9936L152.221 39.7809L151.784 38.8817ZM145.002 42.8468L150.843 50.5258L151.639 49.9204L145.798 42.2414L145.002 42.8468ZM151.46 50.6727L158.062 47.4599L157.625 46.5607L151.022 49.7735L151.46 50.6727ZM157.445 47.313L158.898 49.2233L159.694 48.6179L158.241 46.7076L157.445 47.313Z" fill="black"/>
<path d="M152.869 62.7643L152.991 62.2795L152.873 62.2497L152.754 62.2777L152.869 62.7643ZM147.175 64.1068L146.72 64.3151L146.891 64.6874L147.289 64.5935L147.175 64.1068ZM146.175 61.925L146.06 61.4384L145.466 61.5789L145.72 62.1333L146.175 61.925ZM152.01 60.5444L152.125 61.0309L152.271 60.9963L152.374 60.887L152.01 60.5444ZM160.087 51.9585L160.542 51.7502L160.232 51.0747L159.723 51.6159L160.087 51.9585ZM161.067 54.0967L161.432 54.4392L161.662 54.1941L161.522 53.8884L161.067 54.0967ZM154.483 61.1008L154.118 60.7583L153.537 61.3766L154.36 61.5854L154.483 61.1008ZM165.567 63.9148L166.021 63.7065L165.922 63.489L165.69 63.4301L165.567 63.9148ZM166.627 66.2275L166.505 66.7123L167.516 66.9668L167.081 66.0192L166.627 66.2275ZM152.754 62.2777L147.06 63.6201L147.289 64.5935L152.984 63.251L152.754 62.2777ZM147.629 63.8985L146.629 61.7167L145.72 62.1333L146.72 64.3151L147.629 63.8985ZM146.29 62.4116L152.125 61.0309L151.895 60.0578L146.06 61.4384L146.29 62.4116ZM152.374 60.887L160.452 52.3011L159.723 51.6159L151.646 60.2018L152.374 60.887ZM159.633 52.1669L160.613 54.305L161.522 53.8884L160.542 51.7502L159.633 52.1669ZM160.703 53.7542L154.118 60.7583L154.847 61.4433L161.432 54.4392L160.703 53.7542ZM154.36 61.5854L165.444 64.3994L165.69 63.4301L154.606 60.6162L154.36 61.5854ZM165.112 64.1231L166.172 66.4358L167.081 66.0192L166.021 63.7065L165.112 64.1231ZM166.749 65.7426L152.991 62.2795L152.747 63.2492L166.505 66.7123L166.749 65.7426Z" fill="black"/>
</svg>
